<?xml version="1.0" standalone="no"?>
<!DOCTYPE svg PUBLIC "-//W3C//DTD SVG 1.1//EN" "http://www.w3.org/Graphics/SVG/1.1/DTD/svg11.dtd" >
<svg>
<metadata>
Created by FontForge 20090914 at Tue Feb 26 05:15:58 2019
 By www-data
</metadata>
<defs>
<font id="icomoom" horiz-adv-x="1024" >
  <font-face 
    font-family="icomoom"
    font-weight="400"
    font-stretch="normal"
    units-per-em="1024"
    panose-1="0 0 0 0 0 0 0 0 0 0"
    ascent="960"
    descent="-64"
    bbox="-0.000976562 -65 1704.51 959.999"
    underline-thickness="0"
    underline-position="0"
    unicode-range="U+0001-U+FFFD"
  />
<missing-glyph 
 />
    <glyph glyph-name=".notdef" unicode="&#xfffd;" 
 />
    <glyph glyph-name="glyph1" horiz-adv-x="0" 
d="M0 0v0v0z" />
    <glyph glyph-name="glyph1" horiz-adv-x="0" 
d="M0 0v0v0z" />
    <glyph glyph-name="uni0001" horiz-adv-x="0" 
d="M0 0v0v0z" />
    <glyph glyph-name="space" unicode=" " horiz-adv-x="512" 
d="M0 0v0v0z" />
    <glyph glyph-name="uniE900" unicode="&#xe900;" 
d="M984 659c-2 -5.33301 -4.83398 -10.167 -8.50098 -14.5s-7.5 -8.5 -11.5 -12.5l-159 -159l-160 -160l-160 -160l-159 -159c-3.33301 -3.33301 -7 -6.5 -11 -9.5s-7.66699 -6.16699 -11 -9.5h-8.5h-8.5c-5.33301 2.66699 -10.333 5.83398 -15 9.50098s-9 7.5 -13 11.5
l-99.5 99.5l-98.5 98.5l-12 13.5c-4 4.33301 -7 9.5 -9 15.5v6v6c1.33301 5.33301 3.83301 10.166 7.5 14.499s7.5 8.5 11.5 12.5l159 159l160 160l159 160l160 159c3.33301 3.33301 7 6.5 11 9.5s7.66699 6.16699 11 9.5h8.5h8.5c6 -2.66699 11.333 -6 16 -10
s9.33398 -8.33301 14.001 -13l97 -97.5l98 -97.5l12.5 -14c4.33301 -4.66699 7.83301 -10 10.5 -16v-6v-6v0zM263.999 239.999c-0.666992 -7.33301 -2.33105 -13.4951 -4.99805 -18.4951s-7 -8.83301 -13 -11.5c-6 -3.33301 -11.667 -4.66602 -17 -3.99902s-10.333 3 -15 7
c-8 6.66699 -15.833 13.834 -23.5 21.501l-23.5 22.5c-2 1.33301 -4 3.16602 -6 5.49902s-4 3.16602 -6 2.49902c-6.66699 -4 -12.834 -8.66699 -18.501 -14s-10.167 -11.333 -13.5 -18c-2.66699 -5.33301 -2 -9.5 2 -12.5s7.33301 -6.16699 10 -9.5l70.5 -70l70.5 -71
c6 -6.66699 11.5 -10.334 16.5 -11.001s11.167 2.66602 18.5 9.99902l70 71l70.5 70.5l70.5 70.5l70 70l75 74l74 74.5l74 74.5l74 74c4 4 7.5 8.16699 10.5 12.5s1.16699 9.83301 -5.5 16.5l-76.5 76l-76.5 77c-4 4 -8 6 -12 6s-8 -2 -12 -6l-20.5 -21.5l-21.5 -20.5
c-4.66699 -4.66699 -6.83398 -8.83398 -6.50098 -12.501s2.83301 -7.5 7.5 -11.5c6.66699 -6 13.167 -12.333 19.5 -19s12.833 -13 19.5 -19c7.33301 -8.66699 11.333 -16.834 12 -24.501s-2.33301 -15.167 -9 -22.5c-6.66699 -6.66699 -14.334 -10 -23.001 -10
s-16.667 3.33301 -24 10c-6.66699 6 -13.167 12.167 -19.5 18.5s-12.166 12.5 -17.499 18.5c-5.33301 6.66699 -10.333 10 -15 10s-9.66699 -3 -15 -9c-6 -6 -9.33301 -11.333 -10 -16s2.33301 -10 9 -16l42 -41l41 -42c8.66699 -9.33301 13.5 -17.833 14.5 -25.5
s-1.5 -15.167 -7.5 -22.5c-7.33301 -9.33301 -15.666 -13.666 -24.999 -12.999s-19 6 -29 16l-43.5 42.5l-43.5 42.5c-7.33301 8 -13 9.66699 -17 5s-8.33301 -8.66699 -13 -12c-5.33301 -4 -7.83301 -7.83301 -7.5 -11.5s2.83301 -7.83398 7.5 -12.501
c6.66699 -6 13 -12.167 19 -18.5l18 -18.5c8 -8.66699 12.333 -17.334 13 -26.001s-2.66602 -16.667 -9.99902 -24c-6 -6 -13.5 -8.83301 -22.5 -8.5s-17.5 4.16602 -25.5 11.499c-6.66699 6 -13.334 12.333 -20.001 19s-13 13.334 -19 20.001s-11 8.33398 -15 5.00098
s-8 -7 -12 -11c-4 -3.33301 -7.33301 -6.83301 -10 -10.5s-0.666992 -8.5 6 -14.5s13.167 -12.333 19.5 -19l18.5 -19c7.33301 -8.66699 11.333 -17.334 12 -26.001s-2 -16.334 -8 -23.001c-6.66699 -6.66699 -14.334 -10 -23.001 -10s-17.334 3.66699 -26.001 11l-19 17.5
c-6 5.66699 -11.667 11.834 -17 18.501c-4.66699 5.33301 -9.16699 8.33301 -13.5 9s-9.16602 -2 -14.499 -8c-5.33301 -5.33301 -9 -10.333 -11 -15s0.666992 -10.334 8 -17.001l43.5 -42.5l43.5 -43.5c9.33301 -10 13.166 -20.333 11.499 -31s-8.16699 -18.667 -19.5 -24
c-8.66699 -3.33301 -16.167 -3.66602 -22.5 -0.999023s-12.166 6.66699 -17.499 12l-44.5 44.5l-44.5 44.5c-5.33301 6 -9.83301 7.66699 -13.5 5s-6.83398 -5.66699 -9.50098 -9c-2.66699 -4 -6.5 -7.66699 -11.5 -11s-3.83301 -8.33301 3.5 -15l19.5 -19.5
c6.33301 -6.33301 12.5 -12.833 18.5 -19.5c8 -8 12.333 -16.833 13 -26.5s-2 -17.834 -8 -24.501c-6.66699 -6.66699 -14.667 -9.66699 -24 -9s-18.333 5 -27 13c-6.66699 6 -13.167 12.333 -19.5 19l-18.5 20c-6 6 -10.833 7.33301 -14.5 4l-10.5 -10
c-4 -4 -7.5 -7.83301 -10.5 -11.5s-1.5 -8.5 4.5 -14.5c6.66699 -6 13.334 -12.5 20.001 -19.5l20 -20.5c4 -3.33301 7 -7.16602 9 -11.499s3 -8.5 3 -12.5v0z" />
    <glyph glyph-name="uniE901" unicode="&#xe901;" 
d="M852 578c-1.33301 2 -3.00879 3.50293 -5.00879 4.50293s-4 1.5 -6 1.5l-19 -1v174c0 4 -1.33301 7.33301 -4 10s-6 4 -10 4h-38c-3.33301 0 -6.33301 -1.33301 -9 -4s-4 -6 -4 -10v-177l-3 -1l-130 -5l-52 49c2 9.33301 1.83301 18.5 -0.5 27.5
s-6.16602 17.167 -11.499 24.5c-1.33301 2 -2.66602 3.83301 -3.99902 5.5s-2.66602 3.16699 -3.99902 4.5l6 43c4.66699 0 9.33398 1 14.001 3s8.66699 4.66699 12 8c4.66699 4 8.16699 8.66699 10.5 14s3.5 11 3.5 17l3 89c0.666992 5.33301 0 10.666 -2 15.999
s-5 10.333 -9 15c-4 4 -8.66699 7.16699 -14 9.5s-10.666 3.5 -15.999 3.5l-51 2c-12 0.666992 -22.5 -3 -31.5 -11s-13.5 -18 -13.5 -30l-3 -90c-0.666992 -5.33301 0 -10.666 2 -15.999s5 -10.333 9 -15l2 -2l2 -2l-5 -27l-17 3h-2h-2l9 50
c0.666992 4.66699 0.666992 9 0 13s-2.33398 7.66699 -5.00098 11c-2 3.33301 -4.83301 6 -8.5 8s-7.5 3.33301 -11.5 4l-70 13c-8.66699 1.33301 -16.5 -0.5 -23.5 -5.5s-11.167 -11.833 -12.5 -20.5l-4 -23l-25 6c-2 0.666992 -4 0.833984 -6 0.500977
s-3.66699 -1.16602 -5 -2.49902c-1.33301 -0.666992 -2.5 -1.83398 -3.5 -3.50098s-1.83301 -3.5 -2.5 -5.5l-26 -146c-0.666992 -3.33301 0 -6.5 2 -9.5s4.66699 -5.16699 8 -6.5l27 -7l-8 -50c-1.33301 -8.66699 0.333984 -16.5 5.00098 -23.5
s11.334 -11.167 20.001 -12.5l70 -13h2h2l-10 -60l-44 -149l-121 -116v0h-1v0v0l-35 -35c-2.66699 -2.66699 -4 -5.83398 -4 -9.50098s1.33301 -6.83398 4 -9.50098l96 -96c1.33301 -1.33301 2.83301 -2.33301 4.5 -3s3.16699 -1 4.5 -1v0v0c2 0 3.83301 0.333008 5.5 1
s3.16699 1.66699 4.5 3l11 11c6 6 9.33301 13.5 10 22.5s-2 17.167 -8 24.5l-21 27l125 121v0v1l2.5 2.5c1 1 1.83301 2.16699 2.5 3.5c2 2.66699 3.83301 5.5 5.5 8.5s2.83398 5.83301 3.50098 8.5l35 126l71 -125v-230c0 -4 1.33301 -7.33301 4 -10s6 -4 10 -4h135
c2 0 3.83301 0.333008 5.5 1s3.16699 1.66699 4.5 3s2.33301 2.83301 3 4.5s1 3.5 1 5.5v15c0 8.66699 -3 16.334 -9 23.001s-13.333 10.667 -22 12l-36 4v186v4c0 1.33301 -0.333008 2.66602 -1 3.99902c0 3.33301 -0.5 6.66602 -1.5 9.99902s-2.5 6.33301 -4.5 9l-77 137
l17 94l29 -30c1.33301 -0.666992 2.5 -1.33398 3.5 -2.00098s1.83301 -1 2.5 -1c0.666992 -0.666992 1.5 -1 2.5 -1h2.5v0h1l162 7v-484c0 -4 1.33301 -7.33301 4 -10s5.66699 -4 9 -4h38c4 0 7.33301 1.33301 10 4s4 6 4 10v486c2 0.666992 3.5 1.66699 4.5 3
s1.83301 3 2.5 5l25 66c0.666992 2.66699 0.833984 5 0.500977 7s-1.16602 4 -2.49902 6v0zM783.991 744.003h11v-162h-11v162zM806.991 517.003l-36 -1l-2 37l34 2h5h2h1l10 1l-14 -39v0zM565.991 759.003c-1.33301 -1.33301 -2.99902 -2.33398 -4.99902 -3.00098
s-4 -1 -6 -1v0l-51 2h-2.5c-1 0 -1.83301 0.333008 -2.5 1c-0.666992 0 -1.16699 0.166992 -1.5 0.5s-0.833008 0.5 -1.5 0.5l-1.5 1.5l-1.5 1.5c-1.33301 1.33301 -2.5 3 -3.5 5s-1.5 4.33301 -1.5 7l1 29c9.33301 2 22.166 5.83301 38.499 11.5s31.833 13.834 46.5 24.501
l-3 -69c0 -2 -0.333008 -4 -1 -6s-2 -3.66699 -4 -5v0zM506.992 878.002h1.00098v0l51 -2c2 0 3.83301 -0.333008 5.5 -1s3.5 -1.66699 5.5 -3c-11.333 -12 -24.833 -21.167 -40.5 -27.5s-28.834 -10.833 -39.501 -13.5l2 32c0 4 1.5 7.5 4.5 10.5s6.5 4.5 10.5 4.5v0z
M502.993 730.002v-0.00195312l28 -1l-4 -28c-2 0.666992 -4.16699 1.33398 -6.5 2.00098s-4.5 1.33398 -6.5 2.00098l-16 2l5 23v0zM284.993 622l22 119l12 -3l-20 -119zM384.993 520l-69.999 11.998c-1.33301 0 -2.33301 0.5 -3 1.5s-0.666992 1.83301 0 2.5l43 248
c0 0.666992 0.5 1.33398 1.5 2.00098s2.16699 1 3.5 1l70 -12l2 -2c0.666992 -0.666992 1 -1.66699 1 -3l-32 -181l-11 -66c-0.666992 -1.33301 -1.33398 -2.16602 -2.00098 -2.49902s-1.66699 -0.5 -3 -0.5zM278.994 46.998l-1.00098 -1l-76 76l15 15l34 -43v0v0l29 -37
c1.33301 -1.33301 1.83301 -3 1.5 -5s-1.16602 -3.66699 -2.49902 -5v0zM392.993 253.998l-2 -4l-2 -4h-0.5c-0.333008 0 -0.5 -0.333008 -0.5 -1l-1.5 -1.5c-0.333008 -0.333008 -0.5 -0.833008 -0.5 -1.5l-123 -119l-27 33l115 111c1.33301 0.666992 2.33301 1.5 3 2.5
s1 1.83301 1 2.5l41 142l39 -7v-1l-42 -152v0zM659.993 31.998v-1h-107v21l101 -12c2 0 3.5 -0.666992 4.5 -2s1.5 -3.33301 1.5 -6v0zM598.993 508.998l-126.998 125.999c-2.66699 2.66699 -5.83398 4 -9.50098 4s-6.83398 -1.33301 -9.50098 -4s-4 -5.83398 -4 -9.50098
s1.33301 -6.83398 4 -9.50098l77 -77l-20 -118c-0.666992 -2 -0.833984 -3.66699 -0.500977 -5s0.833008 -2.66602 1.5 -3.99902l80 -141c0.666992 -1.33301 1.16699 -2.66602 1.5 -3.99902s0.833008 -2.66602 1.5 -3.99902v-1v-1v-1.5v-1.5v-184l-41 5v172
c0 0.666992 -0.166992 1.66699 -0.5 3s-0.833008 2.66602 -1.5 3.99902l-89 157v0v0l-6 9v0.5v0.5v0c-1.33301 2 -2.83301 3.66699 -4.5 5s-3.5 2.33301 -5.5 3l-43 7l43 244c0 1.33301 0.5 2.33301 1.5 3s1.83301 0.666992 2.5 0l29 -5h0.5h0.5h1h1l27 -5
c6 -1.33301 11.5 -3.5 16.5 -6.5s9.16699 -6.83301 12.5 -11.5l2 -4c0.666992 -1.33301 1.33398 -2.33301 2.00098 -3l-17 16c-2.66699 2.66699 -6 4 -10 4s-7 -1.33301 -9 -4c-2.66699 -2.66699 -4 -6 -4 -10s1.33301 -7 4 -9l103 -100
c1.33301 -1.33301 3 -2.16602 5 -2.49902s4 -0.5 6 -0.5l122 5l2 -36l-145 -6v0zM794.995 17.9971h-11v471h11v-471z" />
    <glyph glyph-name="uniE902" unicode="&#xe902;" 
d="M512 924c-66 0 -127.667 -12.333 -185 -37c-58 -25.333 -108.5 -59.5 -151.5 -102.5s-77.167 -93.5 -102.5 -151.5c-24.667 -57.333 -37 -119 -37 -185s12.333 -127.667 37 -185c25.333 -58 59.5 -108.5 102.5 -151.5s93.5 -77.167 151.5 -102.5
c57.333 -24.667 119 -37 185 -37s127.667 12.333 185 37c58 25.333 108.5 59.5 151.5 102.5s77.167 93.5 102.5 151.5c24.667 57.333 37 119 37 185s-12.333 127.667 -37 185c-25.333 58 -59.5 108.5 -102.5 151.5s-93.5 77.167 -151.5 102.5
c-57.333 24.667 -119 37 -185 37v0zM819 687c-1.33301 0 -2.49512 -0.326172 -3.49512 -0.993164s-2.16699 -1 -3.5 -1c-22.667 -6 -39.834 -17 -51.501 -33s-16.834 -36 -15.501 -60c1.33301 -31.333 0.5 -62.5 -2.5 -93.5s-11.833 -61.167 -26.5 -90.5
c-8.66699 -16 -18.167 -31.333 -28.5 -46s-21.5 -29 -33.5 -43l-23.5 -27c-7.66699 -8.66699 -17.167 -15.667 -28.5 -21c-4.66699 -2.66699 -6.5 -5.33398 -5.5 -8.00098s2.83301 -5.33398 5.5 -8.00098l21.5 -21.5l21.5 -21.5c9.33301 -8.66699 17.5 -18 24.5 -28
l21.5 -31c1.33301 -2 2.5 -4.5 3.5 -7.5s0.166992 -5.16699 -2.5 -6.5c-3.33301 -2.66699 -5.83301 -2.5 -7.5 0.5s-3.5 5.83301 -5.5 8.5c-1.33301 2 -2.5 4.33301 -3.5 7s-3.5 5.33398 -7.5 8.00098c0.666992 -2 1 -3.5 1 -4.5v-2.5
c1.33301 -4 2.83301 -7.83301 4.5 -11.5s0.833984 -7.16699 -2.49902 -10.5c-0.666992 -0.666992 -1.83398 -1.16699 -3.50098 -1.5l-2.5 -0.5c-3.33301 3.33301 -6.5 6.66602 -9.5 9.99902s-4.5 7.66602 -4.5 12.999c0 4 0.166992 7.83301 0.5 11.5
s0.166016 7.5 -0.500977 11.5c-0.666992 5.33301 -2.33398 9 -5.00098 11s-6.66699 2 -12 0c-6.66699 -2.66699 -13 -4.66699 -19 -6s-12 1.66699 -18 9c0 0.666992 -0.833008 1 -2.5 1h-4.5c-2 -0.666992 -4 -1.83398 -6 -3.50098s-4 -1.5 -6 0.5
c-1.33301 2 -1.66602 3.83301 -0.999023 5.5s1.66699 3.16699 3 4.5c2 2.66699 4.16699 4.83398 6.5 6.50098s5.5 1.83398 9.5 0.500977c4 -2 8.66699 -4.16699 14 -6.5s9.33301 -0.5 12 5.5c2 4 0.333008 7.83301 -5 11.5s-9.66602 7.16699 -12.999 10.5
c-2.66699 3.33301 -5.66699 6.33301 -9 9l-10 8c-2 2 -4 3.83301 -6 5.5s-4.33301 2.16699 -7 1.5c-10.667 -4.66699 -21.667 -5.33398 -33 -2.00098s-22.333 3.33301 -33 0c-2 -0.666992 -4 -1.16699 -6 -1.5s-3.66699 0.166992 -5 1.5
c-10.667 4.66699 -20.667 5.66699 -30 3s-18.666 -6 -27.999 -10c-4.66699 -2 -9.33398 -3 -14.001 -3s-9 -1 -13 -3c-12 -4.66699 -22.667 -11 -32 -19s-17.333 -17.333 -24 -28c-3.33301 -6 -6.66602 -11.667 -9.99902 -17s-7 -10.333 -11 -15
c-2.66699 -4 -6 -7.16699 -10 -9.5s-9 -2.5 -15 -0.5c-4 1.33301 -7.83301 1 -11.5 -1s-7.16699 -3.66699 -10.5 -5c-2.66699 -1.33301 -5.33398 -2.33301 -8.00098 -3s-5.33398 -0.333984 -8.00098 0.999023c-2.66699 2 -3.83398 4.5 -3.50098 7.5s0.833008 5.5 1.5 7.5
c2 6 2.16699 10.167 0.5 12.5s-5.5 2.16602 -11.5 -0.500977c-4 -2 -7.16699 -2.5 -9.5 -1.5l-8.5 3.5c-5.33301 2 -10.5 5 -15.5 9s-11.167 5 -18.5 3c-4 -0.666992 -8 3.33301 -12 12s-5 15 -3 19c5.33301 10 11.5 19 18.5 27s14.833 15 23.5 21
c11.333 8 21.166 17.333 29.499 28s19.5 17.667 33.5 21c1.33301 0 2.33301 0.666992 3 2s1 3 1 5c-3.33301 16 -2.5 31.333 2.5 46s10.5 29 16.5 43c9.33301 22 20.666 42.5 33.999 61.5s27.333 37.833 42 56.5c18 23.333 37.833 45.166 59.5 65.499l65.5 59.5
c6.66699 6.66699 13.167 13.667 19.5 21l19.5 22c16 20 34 37.5 54 52.5s44.667 21.5 74 19.5c13.333 -0.666992 25.5 -3.33398 36.5 -8.00098s21.5 -11 31.5 -19c9.33301 -8 18.833 -14.667 28.5 -20s20.834 -7 33.501 -5c4 0.666992 8.16699 0.5 12.5 -0.5
s6.5 -3.83301 6.5 -8.5s-1.66699 -8 -5 -10s-7 -3.66699 -11 -5v0z" />
    <glyph glyph-name="uniE903" unicode="&#xe903;" 
d="M514 875c59.333 -2 115 -14.001 167 -36.001c51.333 -22.667 96 -53.167 134 -91.5s68 -83.5 90 -135.5c22 -51.333 33 -106.666 33 -165.999c0.666992 -58 -10.333 -112.667 -33 -164c-22.667 -52 -53.5 -97.167 -92.5 -135.5s-84.5 -68.833 -136.5 -91.5
c-51.333 -22.667 -106 -34 -164 -34s-113 11.333 -165 34c-51.333 23.333 -96.5 54.333 -135.5 93s-69.833 84 -92.5 136s-33.667 107 -33 165c0 58 11.333 113 34 165c23.333 51.333 54.333 96.5 93 135.5s84 69.5 136 91.5c52 22.667 107 34 165 34v0zM847 446.999
c0 46.667 -8.66699 90.335 -26 131.002s-41 76.167 -71 106.5s-65.333 54.166 -106 71.499s-84.334 26 -131.001 26c-46.667 0.666992 -90.334 -7.66602 -131.001 -24.999s-76.167 -41 -106.5 -71s-54.166 -65 -71.499 -105c-17.333 -40.667 -26 -84.334 -26 -131.001
s8.33301 -90.334 25 -131.001c17.333 -40.667 41 -76.334 71 -107.001s65.333 -54.667 106 -72s84.334 -26 131.001 -26s90.334 8.33301 131.001 25c40.667 17.333 76.167 41 106.5 71s54.166 65.333 71.499 106s26.333 84.334 27 131.001v0zM512 360
c-24 0 -38.002 2.66602 -42.002 7.99902s-2.66699 18.666 4 39.999c3.33301 12 8.5 22.667 15.5 32s15.167 18 24.5 26c14 11.333 23.333 24.5 28 39.5s6 31.167 4 48.5c-1.33301 12 -5.83301 22.167 -13.5 30.5s-16.5 12.5 -26.5 12.5c-12 0 -21.167 -3.33301 -27.5 -10
s-10.166 -16 -11.499 -28c-0.666992 -10.667 -4 -17.667 -10 -21s-14 -5 -24 -5c-26 0 -41.833 4 -47.5 12s-4.5 24.333 3.5 49c4.66699 14.667 11.667 27 21 37s21.333 17.333 36 22c14 4 27.833 6.83301 41.5 8.5s27.5 1.83398 41.5 0.500977
c24 -2 44.167 -9.16699 60.5 -21.5s28.833 -29.166 37.5 -50.499c10 -24.667 13.167 -48.334 9.5 -71.001s-13.5 -44.334 -29.5 -65.001c-10.667 -13.333 -21.5 -26.166 -32.5 -38.499s-18.5 -27.5 -22.5 -45.5c-2.66699 -9.33301 -8.66699 -12.666 -18 -9.99902
s-16.666 2.66699 -21.999 0v0zM511.998 322.999c3.33301 0 6.83203 -0.167969 10.499 -0.500977s7.16699 -0.166016 10.5 0.500977c8.66699 0.666992 15 -1 19 -5s6.33301 -10.667 7 -20c1.33301 -32 -3.16699 -52.5 -13.5 -61.5s-31.5 -9.5 -63.5 -1.5
c-16 4 -22 12.667 -18 26s5 25 3 35c-1.33301 6 -1.16602 12 0.500977 18s7.5 9 17.5 9h13.5h13.5v0v0v0z" />
    <glyph glyph-name="uniE904" unicode="&#xe904;" 
d="M882 70h-0.996094h-2l-56.5 63.5l-55.5 63.5c-8.66699 10 -17.5 17 -26.5 21s-19.833 6 -32.5 6l-135.5 -2c-45 -0.666992 -89.833 0.333008 -134.5 3c-40.667 2.66699 -74.834 19 -102.501 49s-41.834 65.333 -42.501 106
c-0.666992 30.667 -0.833984 61.5 -0.500977 92.5s0.5 62.167 0.5 93.5c0.666992 43.333 16.167 80.333 46.5 111s67.5 46 111.5 46h92h92h92h93c18 0 35.167 -3 51.5 -9s31.833 -14.667 46.5 -26c15.333 -12 27.5 -26 36.5 -42s16.167 -33 21.5 -51v-121v-121
c-6 -22.667 -15 -43 -27 -61s-28 -33 -48 -45c-6.66699 -4 -11.334 -8.5 -14.001 -13.5s-4 -11.5 -4 -19.5v-72c0 -24 -0.333008 -48 -1 -72v0zM518.004 826c10.667 -4 21.3271 -8.49902 31.9941 -13.499s20.334 -11.833 29.001 -20.5
c2.66699 -2 5.33398 -4.33301 8.00098 -7s3.33398 -5.66699 2.00098 -9s-3.66602 -4.83301 -6.99902 -4.5s-6.66602 0.5 -9.99902 0.5h-56h-55c-31.333 0 -60 -5.33301 -86 -16s-48.5 -25.334 -67.5 -44.001s-33.833 -41.334 -44.5 -68.001c-10.667 -26 -16 -54.333 -16 -85
v-54v-54c0 -6 -0.833008 -11.333 -2.5 -16s-4.5 -9 -8.5 -13l-47.5 -52.5l-46.5 -52.5c-2 -2 -4 -4.33301 -6 -7s-4.66699 -3 -8 -1c-2 1.33301 -2.83301 3.33301 -2.5 6s0.5 5.33398 0.5 8.00098c-0.666992 17.333 -1 34.666 -1 51.999v52c0 4 -0.333008 7.83301 -1 11.5
s-3 6.83398 -7 9.50098c-18 10 -32.333 22.333 -43 37s-19 31.334 -25 50.001v93.5v92.5c6.66699 28 18.834 50.667 36.501 68s40.167 29.666 67.5 36.999h91h91.5h90.5h92v0z" />
    <glyph glyph-name="uniE905" unicode="&#xe905;" 
d="M279 54c5.33301 0 10.501 0.668945 15.501 2.00195s9.83301 3.33301 14.5 6v-63h20v67c5.33301 -4 11.166 -7 17.499 -9s12.833 -3 19.5 -3c14.667 0 27.667 4.66699 39 14s18.666 21 21.999 35c5.33301 1.33301 10.666 3.16602 15.999 5.49902s10 5.16602 14 8.49902v27
c-7.33301 -2 -14.5 -3.5 -21.5 -4.5s-14.5 -1.5 -22.5 -1.5c-21.333 0 -41.833 4.16699 -61.5 12.5s-37.167 20.166 -52.5 35.499c-30 12.667 -54.167 32.334 -72.5 59.001s-27.833 56.334 -28.5 89.001c-5.33301 -4.66699 -9.66602 -10.334 -12.999 -17.001
s-5.66602 -13.667 -6.99902 -21c-0.666992 -8 -0.166992 -15.333 1.5 -22s4.5 -13 8.5 -19c-6.66699 -6 -12 -13 -16 -21s-6 -16.667 -6 -26c0 -10.667 2.66699 -20.667 8 -30s12.333 -16.666 21 -21.999c-1.33301 -4 -2.33301 -7.83301 -3 -11.5s-1 -7.5 -1 -11.5
c0 -13.333 3.83301 -25.333 11.5 -36s17.5 -18 29.5 -22c6 -6.66699 13 -11.834 21 -15.501s16.667 -5.5 26 -5.5v0v0zM853.001 226.002c0 11.333 -2.99707 21.832 -8.99707 31.499s-14 17.167 -24 22.5c-8.66699 -6.66699 -18 -12.667 -28 -18s-20.667 -9.33301 -32 -12
c-10.667 -32.667 -30.167 -59.5 -58.5 -80.5s-60.166 -31.5 -95.499 -31.5c-6 0 -12 0.333008 -18 1s-12 1.66699 -18 3c-0.666992 -1.33301 -1 -2.66602 -1 -3.99902v-5c0 -13.333 3.83301 -25.333 11.5 -36s17.5 -18 29.5 -22c5.33301 -6.66699 12 -11.834 20 -15.501
s16.667 -5.5 26 -5.5c5.33301 0 10.666 0.666992 15.999 2s10 3.33301 14 6v-62h20v66c5.33301 -3.33301 11.166 -6.16602 17.499 -8.49902s12.833 -3.5 19.5 -3.5c15.333 0 28.666 4.66699 39.999 14s18.666 21.333 21.999 36c14.667 2 27 8.83301 37 20.5
s15 25.167 15 40.5c0 6.66699 -0.833008 13 -2.5 19s-4.16699 11.333 -7.5 16c2 4 3.5 8.16699 4.5 12.5s1.5 8.83301 1.5 13.5v0v0zM524.004 200.001c12 -8.66699 24.835 -15.333 38.502 -20s28.167 -7 43.5 -7c33.333 0 62.5 10.333 87.5 31s40.833 46.334 47.5 77.001
c32.667 5.33301 60.167 20.833 82.5 46.5s33.5 55.834 33.5 90.501c0 14 -2 27.5 -6 40.5s-9.66699 25.167 -17 36.5c4 8.66699 7 17.667 9 27s3 19 3 29c0 30 -8.5 56.667 -25.5 80s-38.5 39.666 -64.5 48.999c5.33301 10 9.66602 20.667 12.999 32s5 23 5 35
c0 38 -13.5 70.5 -40.5 97.5s-59.5 40.5 -97.5 40.5c-14 0 -27.167 -1.83301 -39.5 -5.5s-23.833 -9.16699 -34.5 -16.5c-12 20.667 -28.5 37.334 -49.5 50.001s-44.167 19 -69.5 19c-32.667 0 -61.5 -10.167 -86.5 -30.5s-41.167 -45.833 -48.5 -76.5
c-29.333 -4.66699 -55 -17.834 -77 -39.501s-34.667 -48.167 -38 -79.5c-2.66699 -16 -2 -31.667 2 -47s10 -29.666 18 -42.999c-14 -12.667 -25.333 -27.834 -34 -45.501s-13 -36.834 -13 -57.501c0 -24.667 5.83301 -47.167 17.5 -67.5s27.167 -36.5 46.5 -48.5
c-2.66699 -8 -4.83398 -16 -6.50098 -24s-2.5 -16.333 -2.5 -25c0 -30 8.5 -56.667 25.5 -80s38.833 -40 65.5 -50c12.667 -14 27.667 -25 45 -33s36 -12 56 -12c12.667 0 24.5 1.5 35.5 4.5s21.5 7.5 31.5 13.5v-202h-265v-25h574v25h-265v211v0z" />
    <glyph glyph-name="uniE906" unicode="&#xe906;" 
d="M512 904c-62.667 0 -121.667 -12 -177 -36c-55.333 -23.333 -103.666 -55.666 -144.999 -96.999s-74 -89.666 -98 -144.999c-23.333 -55.333 -35 -114.333 -35 -177s11.667 -121.667 35 -177c24 -55.333 56.667 -103.666 98 -144.999s89.666 -74 144.999 -98
s114.333 -36 177 -36s121.667 12 177 36s103.666 56.667 144.999 98s74 89.666 98 144.999c23.333 55.333 35 114.333 35 177s-11.667 121.667 -35 177c-24 55.333 -56.667 103.666 -98 144.999s-89.666 73.666 -144.999 96.999c-55.333 24 -114.333 36 -177 36zM729 584
l-50.999 -76.002l-50.5 -76.5l-50.5 -76.5l-50 -78c-6.66699 -10.667 -13.667 -18.167 -21 -22.5s-16.333 -6.5 -27 -6.5c-8 0 -16 2.16699 -24 6.5s-15 10.166 -21 17.499l-67.5 74l-67.5 75c-0.666992 0 -1.16699 0.5 -1.5 1.5s-0.833008 1.83301 -1.5 2.5
c-7.33301 10.667 -11.5 20.334 -12.5 29.001s1.5 16 7.5 22c5.33301 6 12.5 9.16699 21.5 9.5s19.167 -2.5 30.5 -8.5l45.5 -26.5l45.5 -26.5c2 -1.33301 4.16699 -2.5 6.5 -3.5s4.5 -2.16699 6.5 -3.5c12 -6.66699 20.667 -9.5 26 -8.5s12.333 6.5 21 16.5l89.5 101.5
l89.5 101.5c9.33301 10.667 18.666 17.334 27.999 20.001s18 1.33398 26 -3.99902c8.66699 -6 13.167 -14.5 13.5 -25.5s-3.5 -22.5 -11.5 -34.5v0z" />
    <glyph glyph-name="uniE907" unicode="&#xe907;" 
d="M833 147c12 -57.333 -3.83398 -94.166 -47.501 -110.499s-79.167 -20.833 -106.5 -13.5s-62 12 -104 14l-63 3l-62.5 -3c-41.667 -2 -76.5 -6.66699 -104.5 -14c-27.333 -7.33301 -62.833 -2.83301 -106.5 13.5s-59.5 53.166 -47.5 110.499
c12.667 57.333 39.5 96.333 80.5 117s69.167 69.667 84.5 147c14.667 77.333 44.334 120.666 89.001 129.999l67 14l67 -14c44.667 -9.33301 74.667 -52.666 90 -129.999c14.667 -77.333 42.5 -126.333 83.5 -147s67.833 -59.667 80.5 -117v0v0zM626.999 565
c34 -9.33301 67.167 -2.5 99.5 20.5s54.5 55.833 66.5 98.5c12.667 42.667 11.334 82.5 -3.99902 119.5s-39.666 60.167 -72.999 69.5c-34 10 -67.167 3.33301 -99.5 -20s-54.5 -56.333 -66.5 -99c-12.667 -42 -11.334 -81.5 3.99902 -118.5s39.666 -60.5 72.999 -70.5v0z
M905.999 596c-32 13.333 -65.501 10.166 -100.501 -9.50098s-60.833 -49.834 -77.5 -90.501c-16.667 -41.333 -19.334 -81 -8.00098 -119s33 -63.667 65 -77c32.667 -13.333 66.334 -10.166 101.001 9.50098s60.334 49.834 77.001 90.501c16.667 41.333 19.5 81 8.5 119
s-32.833 63.667 -65.5 77v0zM396.998 565c33.333 10 57.667 33.5 73 70.5s16.666 76.5 3.99902 118.5c-12 42.667 -34.333 75.667 -67 99s-65.667 30 -99 20c-33.333 -9.33301 -57.666 -32.5 -72.999 -69.5s-17 -76.833 -5 -119.5c12.667 -42.667 35.167 -75.5 67.5 -98.5
s65.5 -29.833 99.5 -20.5v0v0zM238.999 300c32 13.333 53.666 39 64.999 77s8.66602 77.667 -8.00098 119c-16.667 40.667 -42.5 70.834 -77.5 90.501s-68.5 22.834 -100.5 9.50098c-32.667 -13.333 -54.5 -39 -65.5 -77s-8.16699 -77.667 8.5 -119
c16.667 -40.667 42.334 -70.834 77.001 -90.501s68.334 -22.834 101.001 -9.50098v0z" />
    <glyph glyph-name="uniE908" unicode="&#xe908;" 
d="M530 904c10 -7.33301 17.0039 -15.833 21.0039 -25.5s5.66699 -20.5 5 -32.5c-0.666992 -10.667 -0.833984 -21.167 -0.500977 -31.5s0.166016 -20.833 -0.500977 -31.5c0 -14 -4 -25.167 -12 -33.5s-18.333 -12.5 -31 -12.5c-12 0 -22.167 4.16699 -30.5 12.5
s-12.5 19.5 -12.5 33.5c-0.666992 10.667 -0.833984 21.167 -0.500977 31.5s0.166016 20.833 -0.500977 31.5c-0.666992 12 1 22.833 5 32.5s11 18.167 21 25.5h18h18v0zM968.004 430c-7.33301 -10 -15.833 -17.0039 -25.5 -21.0039s-20.5 -5.66699 -32.5 -5
c-10.667 0.666992 -21.167 0.833984 -31.5 0.500977s-20.833 -0.166016 -31.5 0.500977c-14 0 -25.167 4 -33.5 12s-12.5 18.333 -12.5 31c0 12 4.16699 22.167 12.5 30.5s19.5 12.5 33.5 12.5c10.667 0.666992 21.167 0.833984 31.5 0.500977
s20.833 -0.166016 31.5 0.500977c12 0.666992 22.833 -1 32.5 -5s18.167 -11 25.5 -21v-18v-18v0zM494.004 -8.00391c-10 7.33301 -17.0039 15.833 -21.0039 25.5s-5.66699 20.5 -5 32.5c0.666992 10.667 0.833984 21.167 0.500977 31.5s-0.166016 20.833 0.500977 31.5
c0 14 4 25.167 12 33.5s18.333 12.5 31 12.5c12 0 22.167 -4.16699 30.5 -12.5s12.5 -19.5 12.5 -33.5c0.666992 -10.667 0.833984 -21.5 0.500977 -32.5s-0.166016 -21.833 0.500977 -32.5c0.666992 -12 -1 -22.667 -5 -32s-11 -17.333 -21 -24h-18h-18v0zM56 465.996
c7.33301 10 15.833 17.0039 25.5 21.0039s20.5 5.66699 32.5 5c10.667 -0.666992 21.167 -0.833984 31.5 -0.500977s20.833 0.166016 31.5 -0.500977c14 0 25.167 -4.16699 33.5 -12.5s12.5 -18.5 12.5 -30.5s-4.33301 -22.167 -13 -30.5s-19.667 -12.5 -33 -12.5
c-10.667 -0.666992 -21.167 -0.833984 -31.5 -0.500977s-20.833 0.166016 -31.5 -0.500977c-12 -0.666992 -23 1 -33 5s-18.333 11 -25 21v18v18v0zM513 699c34.667 -0.666992 67.333 -7.33301 98 -20c30 -13.333 56.333 -31.5 79 -54.5s40.334 -49.5 53.001 -79.5
c13.333 -30.667 19.666 -63.334 18.999 -98.001c0 -34.667 -6.66699 -67 -20 -97c-13.333 -30.667 -31.333 -57.334 -54 -80.001s-49.334 -40.334 -80.001 -53.001c-30.667 -13.333 -63.334 -19.666 -98.001 -18.999c-34.667 0 -67 6.66699 -97 20
c-30.667 13.333 -57.167 31.5 -79.5 54.5s-39.833 49.5 -52.5 79.5c-13.333 30.667 -19.666 63.334 -18.999 98.001c0 34.667 6.66699 67 20 97s31.333 56.333 54 79s49.334 40.334 80.001 53.001c30.667 13.333 63 20 97 20zM674.999 448.001
c0 45.333 -15.833 83.833 -47.5 115.5s-70.167 47.5 -115.5 47.5c-45.333 0.666992 -83.833 -15 -115.5 -47s-47.5 -70.667 -47.5 -116s15.833 -83.833 47.5 -115.5s70.167 -47.5 115.5 -47.5s83.833 15.833 115.5 47.5s47.5 70.167 47.5 115.5zM805.999 784.001
c8.66699 -0.666992 16.166 -2.83105 22.499 -6.49805s11.5 -9.5 15.5 -17.5c3.33301 -8 4.83301 -15.833 4.5 -23.5s-3.83301 -14.834 -10.5 -21.501c-10 -11.333 -20.5 -22.5 -31.5 -33.5l-33.5 -32.5c-8.66699 -7.33301 -18.5 -10.5 -29.5 -9.5s-20.167 5.5 -27.5 13.5
c-7.33301 7.33301 -11.5 16.333 -12.5 27s2.16699 20 9.5 28c10.667 12 21.667 23.5 33 34.5l34 32.5c3.33301 3.33301 7.33301 5.66602 12 6.99902s9.33398 2 14.001 2zM216.998 784.004c6.66699 0 12.8359 -1.16797 18.5029 -3.50098s10.5 -5.83301 14.5 -10.5l28 -27.5
c9.33301 -9 18.666 -18.5 27.999 -28.5c9.33301 -9.33301 14.166 -19.666 14.499 -30.999s-3.83398 -21.333 -12.501 -30c-8 -9.33301 -18 -13.833 -30 -13.5s-23 5.16602 -33 14.499s-19.833 19 -29.5 29l-28.5 30c-6.66699 6.66699 -10.5 14.167 -11.5 22.5
s0.5 16.5 4.5 24.5s9.16699 13.833 15.5 17.5s13.5 5.83398 21.5 6.50098v0zM218 112.003c-8 0 -15.1689 1.99902 -21.502 5.99902s-11.5 9.66699 -15.5 17c-4 8 -5.83301 16 -5.5 24s3.5 15.333 9.5 22l32.5 33.5c11 11 22.167 21.5 33.5 31.5
c8.66699 8 18.334 11.5 29.001 10.5s20 -5.16699 28 -12.5c7.33301 -8 11.5 -17.167 12.5 -27.5s-1.83301 -19.833 -8.5 -28.5l-33 -34l-34 -33c-4 -3.33301 -8.16699 -5.66602 -12.5 -6.99902s-9.16602 -2 -14.499 -2v0zM847.998 158.002
c0 -10 -1.8291 -18.1631 -5.49609 -24.4961s-8.83398 -11.5 -15.501 -15.5c-7.33301 -4.66699 -14.833 -7 -22.5 -7s-14.834 2.66699 -21.501 8c-13.333 10.667 -26 21.834 -38 33.501s-23.333 24.167 -34 37.5c-6.66699 8 -9.33398 17.167 -8.00098 27.5
s5.66602 19.166 12.999 26.499s16.166 11.666 26.499 12.999s19.5 -1.33398 27.5 -8.00098c13.333 -10.667 25.833 -22 37.5 -34s22.834 -24.667 33.501 -38c2.66699 -2.66699 4.5 -5.83398 5.5 -9.50098s1.5 -6.83398 1.5 -9.50098z" />
    <glyph glyph-name="uniE909" unicode="&#xe909;" 
d="M413 924l31.999 -0.00390625h32c14.667 -6 28.667 -13 42 -21s25 -18.667 35 -32c4 -5.33301 8.16699 -7.66602 12.5 -6.99902s8.83301 2 13.5 4c27.333 10.667 53.666 14 78.999 10s48.666 -16 69.999 -36c21.333 -20.667 34.833 -43.334 40.5 -68.001s3.5 -51 -6.5 -79
c-2.66699 -7.33301 -3 -12.666 -1 -15.999s5.66699 -7 11 -11c29.333 -17.333 49.5 -40 60.5 -68s12.167 -58.333 3.5 -91c-1.33301 -5.33301 -1.83301 -10.166 -1.5 -14.499s1.5 -9.16602 3.5 -14.499c18.667 -41.333 20.167 -80.166 4.5 -116.499
s-44.834 -61.833 -87.501 -76.5c-5.33301 -2 -9.66602 -4.66699 -12.999 -8s-6.33301 -7.66602 -9 -12.999c-16 -39.333 -41.667 -66.166 -77 -80.499s-72.666 -12.833 -111.999 4.5c-7.33301 2.66699 -12.166 3.16699 -14.499 1.5s-3.5 -6.16699 -3.5 -13.5v-75.5v-74.5
c0 -14 1.5 -22.333 4.5 -25s11.833 -4.33398 26.5 -5.00098h102c34 0 68.333 0.333008 103 1c10 0 16.833 -2 20.5 -6s4.16699 -11 1.5 -21h-142h-141.5h-141.5h-142c-2 10.667 -0.666992 17.834 4 21.501s12 5.5 22 5.5c34.667 -0.666992 69.5 -0.833984 104.5 -0.500977
s69.833 0.166016 104.5 -0.500977c10 0 16.833 1.83301 20.5 5.5s5.5 10.5 5.5 20.5c-0.666992 24 -1 48 -1 72s0.333008 48 1 72c0 8 -1.33301 13.167 -4 15.5s-8.33398 2.16602 -17.001 -0.500977c-24 -8.66699 -47 -10.667 -69 -6s-43 15 -63 31
c-4 2.66699 -7.83301 5.5 -11.5 8.5s-7.5 5.5 -11.5 7.5c-31.333 17.333 -53.333 38.833 -66 64.5s-15.667 56.167 -9 91.5c0.666992 6 0.333984 11 -0.999023 15s-4 7.66699 -8 11c-30.667 30.667 -47.167 62.334 -49.5 95.001s9.16699 66 34.5 100
c3.33301 4.66699 5.33301 9 6 13s0 8.66699 -2 14c-16.667 41.333 -17.167 79.333 -1.5 114s44.5 59.334 86.5 74.001c4.66699 1.33301 8.83398 3.16602 12.501 5.49902s6.5 5.83301 8.5 10.5c8.66699 24 21.5 43.333 38.5 58s37.167 26 60.5 34v0zM595.999 145.996
c34.667 0 64.332 7.1709 88.999 21.5039s44.334 35.833 59.001 64.5c4 7.33301 8.5 13.833 13.5 19.5s11.833 9.5 20.5 11.5c2.66699 0.666992 5.16699 1.66699 7.5 3s4.83301 2.66602 7.5 3.99902c14 8 25.167 10.5 33.5 7.5s14.5 -12.5 18.5 -28.5
c3.33301 -14.667 5.5 -29.667 6.5 -45s1.5 -30.666 1.5 -45.999c-0.666992 -10.667 -4.33398 -19.834 -11.001 -27.501s-15 -13.834 -25 -18.501c-4.66699 -2 -8.66699 -4.66699 -12 -8s-6.33301 -7.33301 -9 -12c-8 -13.333 -18 -22.833 -30 -28.5s-25.667 -6.5 -41 -2.5
c-8.66699 2 -14 1.66699 -16 -1s-3 -7.66699 -3 -15v-14.5c0 -5 -0.333008 -9.83301 -1 -14.5c0 -3.33301 -1 -5.83301 -3 -7.5s-4.66699 -2.5 -8 -2.5s-6.16602 0.833008 -8.49902 2.5s-3.16602 4.16699 -2.49902 7.5c3.33301 17.333 1.33301 29.333 -6 36s-20 10 -38 10
c-11.333 0 -22.166 4.16699 -32.499 12.5s-19.5 17.166 -27.5 26.499c-4.66699 6 -8.33398 12.667 -11.001 20s-2.33398 14.333 0.999023 21s8 8.66699 14 6s10.333 -3.33398 13 -2.00098v0zM365.997 59c-4.66699 -2 -9.83984 -1.16406 -15.5068 2.50293
s-10.5 2.83398 -14.5 -2.49902c-2.66699 -4 -3.66699 -9 -3 -15s1 -12 1 -18c-0.666992 -4 -1.16699 -8.33301 -1.5 -13s-3.83301 -7 -10.5 -7c-7.33301 0 -11 2.33301 -11 7s-0.333008 9 -1 13v4.5v4.5c1.33301 9.33301 0.333008 16 -3 20s-10.666 5.66699 -21.999 5
c-23.333 -2 -44 6 -62 24s-27 39 -27 63c0 4 -0.666992 7.83301 -2 11.5s-3.66602 7.16699 -6.99902 10.5c-10 12 -15.5 24.5 -16.5 37.5s2.5 26.167 10.5 39.5c2.66699 4.66699 4.33398 9.16699 5.00098 13.5s0.333984 9.16602 -0.999023 14.499
c-2.66699 8 -3.66699 16.167 -3 24.5s3.33398 16.166 8.00098 23.499c1.33301 2.66699 2.83301 5 4.5 7s3.83398 2.66699 6.50098 2c3.33301 -0.666992 5 -2.33398 5 -5.00098s0.333008 -5 1 -7c3.33301 -22 10 -42 20 -60s24 -33.667 42 -47
c10.667 -8 21.667 -15.667 33 -23l34 -22c15.333 -10 31.833 -16.333 49.5 -19s35.5 -3 53.5 -1c4 0 8 0.5 12 1.5s6.66699 -1.5 8 -7.5c1.33301 -5.33301 1.5 -10.5 0.5 -15.5s-4.5 -8.83301 -10.5 -11.5c-6.66699 -2.66699 -12.167 -6.33398 -16.5 -11.001
s-8.16602 -10 -11.499 -16c-6 -9.33301 -13.667 -16.333 -23 -21s-20 -7 -32 -7v0z" />
    <glyph glyph-name="uniE90A" unicode="&#xe90a;" 
d="M512 936c-67.333 0 -130.664 -12.665 -189.997 -37.998c-59.333 -26 -111 -61 -155 -105s-79 -95.667 -105 -155c-25.333 -59.333 -38 -122.666 -38 -189.999s12.667 -130.666 38 -189.999s60.166 -111 104.499 -155s96.166 -79 155.499 -105
c59.333 -25.333 122.666 -38 189.999 -38s130.666 12.667 189.999 38s111 60.166 155 104.499s79 96.166 105 155.499c25.333 59.333 38 122.666 38 189.999s-12.667 130.666 -38 189.999c-26 59.333 -61 111 -105 155s-95.667 79 -155 105
c-59.333 25.333 -122.666 38 -189.999 38v0zM282.002 552.002c-14 17.333 -25.666 35.668 -34.999 55.001s-16.666 39.666 -21.999 60.999c-3.33301 12.667 -6.5 25.334 -9.5 38.001l-9.5 39c-0.666992 2 -1.16699 4.33301 -1.5 7s0.5 5 2.5 7h5h6
c19.333 -10.667 39.5 -18.334 60.5 -23.001s42.167 -7.66699 63.5 -9c38.667 -2.66699 76 -9.16699 112 -19.5s69.333 -28.166 100 -53.499c8 -6.66699 15.5 -13.667 22.5 -21s13.5 -15 19.5 -23c2.66699 -3.33301 3.83398 -6 3.50098 -8s-3.16602 -3.33301 -8.49902 -4
c-14.667 -2 -29.334 -4.5 -44.001 -7.5s-29.334 -6.5 -44.001 -10.5c-2 -0.666992 -4.16699 -0.833984 -6.5 -0.500977s-4.5 1.16602 -6.5 2.49902c-12 8 -24.833 13.833 -38.5 17.5s-28.167 6.83398 -43.5 9.50098l28.5 -13.5c9 -4.33301 17.5 -8.83301 25.5 -13.5
c2.66699 -0.666992 5.5 -1.66699 8.5 -3s4.5 -3.33301 4.5 -6c0 -3.33301 -1.5 -5.5 -4.5 -6.5l-7.5 -2.5c-15.333 -8 -29.5 -17.167 -42.5 -27.5s-24.5 -22.5 -34.5 -36.5c-4 -5.33301 -7.83301 -8.33301 -11.5 -9s-8.16699 0 -13.5 2
c-16.667 6 -31.334 14.167 -44.001 24.5s-24.334 21.833 -35.001 34.5v0zM818.003 614.004c-6.66699 -23.333 -12.667 -46.8311 -18 -70.498s-12 -47.167 -20 -70.5c-13.333 -34.667 -30.833 -65.834 -52.5 -93.501s-49.167 -50.5 -82.5 -68.5
c-16.667 -9.33301 -34.167 -16.166 -52.5 -20.499s-36.833 -7.83301 -55.5 -10.5c-22 -2.66699 -44.167 -5.66699 -66.5 -9s-44.5 -9 -66.5 -17c-6.66699 -2.66699 -11.834 -2.16699 -15.501 1.5s-5.16699 9.16699 -4.5 16.5c1.33301 8.66699 3.5 16.834 6.5 24.501
s6.5 15.167 10.5 22.5c12 21.333 26.667 39.5 44 54.5s37 27.833 59 38.5l17.5 8c5.66699 2.66699 11.167 5.66699 16.5 9c-15.333 -3.33301 -30.333 -7.5 -45 -12.5s-29 -11.5 -43 -19.5c-30.667 -16.667 -53.834 -38.334 -69.501 -65.001s-26.167 -56.334 -31.5 -89.001
c-2.66699 -15.333 -4 -30.333 -4 -45s2 -29.667 6 -45c0.666992 -2.66699 1 -5.5 1 -8.5s-1.33301 -5.5 -4 -7.5h-4h-4c-6 6.66699 -9.66699 14.167 -11 22.5s-2.33301 16.5 -3 24.5c-3.33301 43.333 -2.16602 85.833 3.50098 127.5s16.834 82.5 33.501 122.5
c17.333 42.667 42 75.334 74 98.001s69.667 38 113 46c24 4 47.833 7.16699 71.5 9.5s47.5 5.16602 71.5 8.49902c18.667 3.33301 37 7.5 55 12.5s35.667 11.5 53 19.5c2.66699 1.33301 5.16699 2.33301 7.5 3s4.83301 0 7.5 -2c2 -2 3 -4.33301 3 -7
s-0.333008 -5.33398 -1 -8.00098v0z" />
    <glyph glyph-name="uniE90B" unicode="&#xe90b;" 
d="M512 544c-40 0 -74 -14 -102 -42s-42 -62 -42 -102s14 -74 42 -102s62 -42 102 -42s74 14 102 42s42 62 42 102s-14 74 -42 102s-62 42 -102 42v0zM895 688h-115c-8 0 -15.667 2.66699 -23 8s-12.333 11.666 -15 18.999l-29 89
c-2.66699 7.33301 -7.66699 13.666 -15 18.999s-15 8 -23 8h-326c-8 0 -15.667 -2.66699 -23 -8s-12.333 -11.666 -15 -18.999l-30 -89c-2 -7.33301 -6.66699 -13.666 -14 -18.999s-15 -8 -23 -8h-115c-26.667 0 -49.334 -9.5 -68.001 -28.5s-28 -41.5 -28 -67.5v-432
c0 -26 9.33301 -48.333 28 -67s41.334 -28 68.001 -28h766c26.667 0 49.334 9.33301 68.001 28s28 41 28 67v432c0 26 -9.33301 48.5 -28 67.5s-41.334 28.5 -68.001 28.5v0v0zM512 160c-33.333 0 -64.333 6.33301 -93 19c-29.333 12.667 -54.833 29.834 -76.5 51.501
s-38.834 47.167 -51.501 76.5c-12.667 28.667 -19 59.667 -19 93s6.33301 64.333 19 93c12.667 29.333 29.834 54.833 51.501 76.5s47.167 38.834 76.5 51.501c28.667 12.667 59.667 19 93 19s64.333 -6.33301 93 -19c29.333 -12.667 54.833 -29.834 76.5 -51.501
s38.834 -47.167 51.501 -76.5c12.667 -28.667 19 -59.667 19 -93s-6.33301 -64.333 -19 -93c-12.667 -29.333 -29.834 -54.833 -51.501 -76.5s-47.167 -38.834 -76.5 -51.501c-28.667 -12.667 -59.667 -19 -93 -19v0zM862 525c-9.33301 0 -17.333 3.16699 -24 9.5
s-10 14.166 -10 23.499s3.33301 17.333 10 24s14.667 10 24 10s17.166 -3.33301 23.499 -10s9.5 -14.667 9.5 -24s-3.16699 -17.166 -9.5 -23.499s-14.166 -9.5 -23.499 -9.5v0z" />
    <glyph glyph-name="uniE90C" unicode="&#xe90c;" 
d="M512 932c-66.667 0 -129.334 -12.667 -188.001 -38c-59.333 -25.333 -110.833 -59.833 -154.5 -103.5s-78.167 -95.167 -103.5 -154.5c-25.333 -58.667 -38 -121.334 -38 -188.001s12.667 -129.334 38 -188.001c25.333 -59.333 59.833 -110.833 103.5 -154.5
s95.167 -78.167 154.5 -103.5c58.667 -25.333 121.334 -38 188.001 -38s129.334 12.667 188.001 38c59.333 25.333 110.833 59.833 154.5 103.5s78.167 95.167 103.5 154.5c25.333 58.667 38 121.334 38 188.001s-12.667 129.334 -38 188.001
c-25.333 59.333 -59.833 110.833 -103.5 154.5s-95.167 78.167 -154.5 103.5c-58.667 25.333 -121.334 38 -188.001 38v0zM807 558c-3.33301 -8.66699 -8.17383 -15.999 -14.5068 -21.999s-12.833 -11.667 -19.5 -17c-8 -6.66699 -16.667 -12.667 -26 -18
s-19 -9.66602 -29 -12.999c-4.66699 -2 -9.5 -3.16699 -14.5 -3.5s-10.167 -0.166016 -15.5 0.500977c-3.33301 0.666992 -6.16602 1.83398 -8.49902 3.50098s-4.5 3.83398 -6.5 6.50098c-5.33301 5.33301 -8.83301 8 -10.5 8s-4.83398 -2.33301 -9.50098 -7
c-6.66699 -6.66699 -12.334 -13.5 -17.001 -20.5s-8.33398 -14.5 -11.001 -22.5c-1.33301 -2.66699 -2.66602 -5.5 -3.99902 -8.5s-2.66602 -5.83301 -3.99902 -8.5c-1.33301 -3.33301 -1.66602 -6.16602 -0.999023 -8.49902s2.66699 -4.16602 6 -5.49902
c-0.666992 1.33301 -1 2.83301 -1 4.5v4.5c0 4.66699 2 8.16699 6 10.5s8 2.5 12 0.5c2 -0.666992 3.33301 -1.83398 4 -3.50098s1 -3.5 1 -5.5c0 -1.33301 -0.166992 -2.83301 -0.5 -4.5s-0.833008 -3.16699 -1.5 -4.5c0 -1.33301 -0.166992 -2.5 -0.5 -3.5
s0.5 -2.16699 2.5 -3.5c1.33301 0 2.33301 0.333008 3 1s1.33398 1.66699 2.00098 3l4 4c1.33301 1.33301 3.33301 2 6 2c3.33301 0 6.5 -1 9.5 -3s4.83301 -4.66699 5.5 -8c0 -3.33301 -1.33301 -6.33301 -4 -9s-6 -4.33398 -10 -5.00098h-3c-1.33301 0 -2.33301 -1 -3 -3
v-2c0 -0.666992 0.666992 -1 2 -1h1.5h0.5c4 0 7 -1 9 -3s2.66699 -5 2 -9c0 -3.33301 -1.16699 -5.83301 -3.5 -7.5s-5.16602 -2.5 -8.49902 -2.5c-2 0.666992 -3.16699 0.5 -3.5 -0.5s-0.5 -2.16699 -0.5 -3.5c-0.666992 -3.33301 -2.5 -5.66602 -5.5 -6.99902
s-5.83301 -1.33301 -8.5 0s-4.5 2.83301 -5.5 4.5s-1.5 3.83398 -1.5 6.50098c-0.666992 0.666992 -1.16699 1.5 -1.5 2.5s-1.16602 1.5 -2.49902 1.5c0 -0.666992 -0.166992 -1.5 -0.5 -2.5s-0.5 -2.16699 -0.5 -3.5c-0.666992 -3.33301 -2.83398 -5.83301 -6.50098 -7.5
s-7.16699 -1.5 -10.5 0.5c-2 1.33301 -3.33301 3.5 -4 6.5s-0.333984 5.83301 0.999023 8.5c0 0.666992 0.166992 1.16699 0.5 1.5l0.5 0.5c1.33301 1.33301 2.5 2.66602 3.5 3.99902s0.833008 3 -0.5 5s-2.33301 3.66699 -3 5s-2 2.33301 -4 3l-10 4l-10 4
c-4.66699 2.66699 -7.66699 5.66699 -9 9s-1 7.66602 1 12.999c2.66699 6 4.66699 12.167 6 18.5s2.33301 12.833 3 19.5c-1.33301 0 -2.33301 -0.166992 -3 -0.5s-1.33398 -0.833008 -2.00098 -1.5c-6.66699 -6 -14 -9.5 -22 -10.5s-16.333 -0.5 -25 1.5
c-4.66699 0.666992 -9.16699 1.66699 -13.5 3s-8.83301 2.33301 -13.5 3c-4 1.33301 -8 0.833008 -12 -1.5s-6.66699 -4.83301 -8 -7.5c-0.666992 -1.33301 -0.666992 -2.33301 0 -3s1.33398 -1 2.00098 -1l19 -9.5c6 -3 11.667 -6.83301 17 -11.5
c4.66699 -4 7.33398 -9 8.00098 -15s-0.333008 -11.667 -3 -17c-2 -3.33301 -4.33301 -6.83301 -7 -10.5s-5 -7.16699 -7 -10.5c-1.33301 -2 -1.83301 -5 -1.5 -9s1.5 -6.66699 3.5 -8c1.33301 -0.666992 2.33301 -0.833984 3 -0.500977s1.33398 0.833008 2.00098 1.5
c4.66699 1.33301 9 0.666016 13 -2.00098s6 -6.33398 6 -11.001c0 -4 -1.16699 -7.33301 -3.5 -10s-5.83301 -3.66699 -10.5 -3c-2 0 -3.83301 0.166992 -5.5 0.5s-3.5 0.833008 -5.5 1.5s-3.5 0.666992 -4.5 0s-1.83301 -1.66699 -2.5 -3s-0.833984 -2.5 -0.500977 -3.5
s1.16602 -1.83301 2.49902 -2.5c1.33301 -1.33301 2.5 -2.66602 3.5 -3.99902s1.83301 -3 2.5 -5c0.666992 -4 -0.333008 -7.66699 -3 -11s-5.66699 -5.33301 -9 -6s-6.33301 0 -9 2s-4.33398 4.66699 -5.00098 8c-0.666992 2 -1 3.83301 -1 5.5v5.5
c0 0.666992 -0.166992 1.5 -0.5 2.5s-0.833008 1.83301 -1.5 2.5c-1.33301 0 -2.16602 -0.5 -2.49902 -1.5s-0.5 -1.83301 -0.5 -2.5c-0.666992 -2 -1.66699 -3.66699 -3 -5l-4 -4c-2.66699 -2.66699 -5.5 -4 -8.5 -4s-5.5 1.33301 -7.5 4s-3 5.5 -3 8.5s1 5.83301 3 8.5
c1.33301 0.666992 2.5 1.5 3.5 2.5s2.16699 1.83301 3.5 2.5c0.666992 0.666992 1.5 1.16699 2.5 1.5s1.83301 1.16602 2.5 2.49902c-1.33301 0.666992 -2.16602 0.666992 -2.49902 0s-0.833008 -1.33398 -1.5 -2.00098c-2 -1.33301 -4.16699 -2.33301 -6.5 -3
s-4.5 -0.666992 -6.5 0c-3.33301 1.33301 -5.66602 3.16602 -6.99902 5.49902s-2 4.83301 -2 7.5c0.666992 2.66699 2 4.83398 4 6.50098s4.66699 2.5 8 2.5h4h4c1.33301 0 2.33301 0.166992 3 0.5s1 1.16602 1 2.49902s-0.333008 2.16602 -1 2.49902s-1.66699 0.5 -3 0.5
c-2.66699 0 -5 0.666992 -7 2s-3.33301 3.66602 -4 6.99902c-1.33301 2.66699 -1.5 5.33398 -0.5 8.00098s2.5 4.66699 4.5 6s4.66699 1.66602 8 0.999023s6 -2 8 -4c0.666992 -0.666992 1.33398 -1.66699 2.00098 -3s1.33398 -2.33301 2.00098 -3
c1.33301 -1.33301 2.33301 -2 3 -2s1.33398 0.666992 2.00098 2c0.666992 2.66699 1.33398 5.16699 2.00098 7.5s1 4.83301 1 7.5c0.666992 2.66699 0.333984 4.66699 -0.999023 6s-3.66602 2 -6.99902 2c-8 0 -16.167 1 -24.5 3s-16.166 5.33301 -23.499 10
c-1.33301 0.666992 -2.5 1 -3.5 1s-2.16699 -0.333008 -3.5 -1c-8 -3.33301 -16 -6.33301 -24 -9l-24 -8c-6 -1.33301 -11.667 -2.66602 -17 -3.99902s-11 -3 -17 -5c-9.33301 -2 -18.5 -4.66699 -27.5 -8s-17.833 -7.33301 -26.5 -12
c-9.33301 -4.66699 -17.5 -10.5 -24.5 -17.5s-11.833 -15.5 -14.5 -25.5c-2 -7.33301 -3 -14.666 -3 -21.999s1 -15 3 -23c1.33301 -6 3.5 -12 6.5 -18s6.83301 -11.333 11.5 -16c5.33301 -5.33301 11.166 -9.16602 17.499 -11.499s12.833 -3.83301 19.5 -4.5
c3.33301 -0.666992 6.66602 -0.833984 9.99902 -0.500977s6.66602 0.833008 9.99902 1.5c2.66699 0.666992 5.16699 0.333984 7.5 -0.999023s3.83301 -3.33301 4.5 -6s0.5 -5.16699 -0.5 -7.5s-2.83301 -4.16602 -5.5 -5.49902
c-2 -0.666992 -4.16699 -1.33398 -6.5 -2.00098s-4.83301 -1 -7.5 -1c-11.333 -1.33301 -22.333 -1.16602 -33 0.500977s-20.667 6.5 -30 14.5c-9.33301 8.66699 -17.166 18.334 -23.499 29.001s-10.5 22.667 -12.5 36l-0.5 1c-0.333008 0.666992 -0.5 1.33398 -0.5 2.00098
v14v14c0.666992 4.66699 1.66699 9.5 3 14.5s3.33301 10.167 6 15.5c4 8.66699 8.66699 16.834 14 24.501s11.666 14.5 18.999 20.5c5.33301 6 11.5 10.833 18.5 14.5l20.5 10.5c12.667 6 25.334 11.667 38.001 17s25 11.333 37 18
c1.33301 1.33301 2.83301 2.66602 4.5 3.99902s3.16699 2.66602 4.5 3.99902c1.33301 0.666992 1.83301 1.5 1.5 2.5s-0.5 2.16699 -0.5 3.5c-2 5.33301 -3.83301 10.666 -5.5 15.999s-3.16699 10.666 -4.5 15.999c-0.666992 2.66699 -1.16699 5.5 -1.5 8.5
s-0.5 6.16699 -0.5 9.5c-0.666992 2 -1.33398 3.16699 -2.00098 3.5s-2 -0.166992 -4 -1.5l-6.5 -4.5c-2.33301 -1.66699 -4.83301 -3.16699 -7.5 -4.5c-1.33301 -1.33301 -2 -2.33301 -2 -3s0.666992 -2 2 -4c4 -2.66699 6.33301 -5.83398 7 -9.50098s0 -7.16699 -2 -10.5
s-5 -5.66602 -9 -6.99902s-8 -1.33301 -12 0c-2 1.33301 -3.33301 2.66602 -4 3.99902l-2 4c-0.666992 2 -1.16699 4 -1.5 6s-0.5 4.33301 -0.5 7v4.5c0 1.66699 -1 2.83398 -3 3.50098c-1.33301 0.666992 -3 0.166992 -5 -1.5s-3.33301 -3.5 -4 -5.5
c0 -1.33301 -0.5 -2.66602 -1.5 -3.99902s-2.16699 -2.66602 -3.5 -3.99902c-2.66699 -2.66699 -6 -4 -10 -4s-7 1.33301 -9 4c-2.66699 2.66699 -4 6 -4 10s1.33301 7.33301 4 10c1.33301 1.33301 2.83301 2.5 4.5 3.5s3.5 1.83301 5.5 2.5
c1.33301 0 2.16602 0.166992 2.49902 0.5s0.833008 0.5 1.5 0.5c1.33301 0.666992 2.16602 1.5 2.49902 2.5s0.5 2.16699 0.5 3.5c-0.666992 1.33301 -1.5 1.83301 -2.5 1.5s-1.83301 -0.5 -2.5 -0.5c-2 -0.666992 -4 -1.16699 -6 -1.5s-4.33301 0.166992 -7 1.5
c-2 0.666992 -3.83301 1.83398 -5.5 3.50098s-2.83398 3.83398 -3.50098 6.50098c0 2 0.5 4.16699 1.5 6.5s2.5 4.16602 4.5 5.49902c2.66699 1.33301 5.66699 1.66602 9 0.999023s6 -2 8 -4c0.666992 -0.666992 1.5 -1.33398 2.5 -2.00098s1.83301 -1.33398 2.5 -2.00098
c0.666992 0 1.5 0.166992 2.5 0.5s1.5 0.833008 1.5 1.5c0.666992 0.666992 0.666992 1.33398 0 2.00098s-1.33398 1 -2.00098 1l-1 0.5c-0.666992 0.333008 -1.33398 0.5 -2.00098 0.5c-2.66699 1.33301 -4.66699 3.33301 -6 6s-1.66602 5.33398 -0.999023 8.00098
c0 2.66699 1 5 3 7s4 3 6 3c3.33301 0.666992 6.33301 0.166992 9 -1.5s4.66699 -3.83398 6 -6.50098c0 -1.33301 0.166992 -2.66602 0.5 -3.99902s0.833008 -2.66602 1.5 -3.99902l0.5 -1.5c0.333008 -1 1.16602 -1.16699 2.49902 -0.5
c0.666992 0.666992 0.833984 1.33398 0.500977 2.00098l-0.5 1c-1.33301 2 -2.33301 4 -3 6s-1 4 -1 6c0 4 1 7.33301 3 10s5 4 9 4c3.33301 0 6 -1.16699 8 -3.5s3 -5.5 3 -9.5v-2v-3c2 3.33301 4 6.16602 6 8.49902s4 4.83301 6 7.5c4.66699 7.33301 9.66699 11 15 11
s11 -2.33301 17 -7c6.66699 -5.33301 12.5 -11.5 17.5 -18.5s9.16699 -14.5 12.5 -22.5c2 -4.66699 3.5 -9.5 4.5 -14.5s2.5 -9.83301 4.5 -14.5v-3c0 -1.33301 0.666992 -2 2 -2s2.5 0.333008 3.5 1s1.83301 1.33398 2.5 2.00098c3.33301 6 6.83301 11.667 10.5 17
s7.16699 11 10.5 17c6 8.66699 12.667 16.167 20 22.5s16 11.5 26 15.5c3.33301 0.666992 6.5 1.33398 9.5 2.00098s6.5 1 10.5 1c8 0.666992 16.167 0.666992 24.5 0s16.833 -1.66699 25.5 -3c1.33301 0 2.5 0.166992 3.5 0.5s1.5 0.833008 1.5 1.5
c0.666992 1.33301 1 2.5 1 3.5s-0.333008 1.83301 -1 2.5s-1.33398 1.5 -2.00098 2.5s-1.33398 2.16699 -2.00098 3.5c-1.33301 1.33301 -2.16602 2.83301 -2.49902 4.5s-0.5 3.83398 -0.5 6.50098c0.666992 3.33301 1 6.66602 1 9.99902s-1.66699 6.33301 -5 9
c-0.666992 0.666992 -1.5 1.16699 -2.5 1.5s-2.16699 -0.166992 -3.5 -1.5c-1.33301 -0.666992 -2.5 -1.33398 -3.5 -2.00098s-2.16699 -1.33398 -3.5 -2.00098c-3.33301 -1.33301 -6.66602 -1.16602 -9.99902 0.500977s-6 4.16699 -8 7.5
c-1.33301 3.33301 -1.66602 6.5 -0.999023 9.5s2.33398 5.5 5.00098 7.5c2 1.33301 4.16699 2.33301 6.5 3s4.5 1 6.5 1h3.5h3.5c1.33301 0 2.5 0.166992 3.5 0.5s1.5 1.16602 1.5 2.49902c0.666992 2 1 3.66699 1 5s-1 2.33301 -3 3c-2.66699 2 -5.16699 4.16699 -7.5 6.5
s-3.83301 5.5 -4.5 9.5c0 2.66699 0.5 5 1.5 7s2.5 3.66699 4.5 5c2 2 4.16699 3.16699 6.5 3.5s4.5 -0.166992 6.5 -1.5c3.33301 -2 5.83301 -4 7.5 -6s2.83398 -5 3.50098 -9v-4c0 -1.33301 0.333008 -2.66602 1 -3.99902c0 -1.33301 0.333008 -2.33301 1 -3
s1.66699 -1 3 -1s2.33301 0.5 3 1.5s1.33398 1.83301 2.00098 2.5c0 1.33301 -0.166992 2.5 -0.5 3.5s-0.5 2.16699 -0.5 3.5c0 2.66699 0.5 5.16699 1.5 7.5s2.83301 4.16602 5.5 5.49902c2 1.33301 4 2 6 2s4 -0.666992 6 -2c4 -2 6.16699 -5.33301 6.5 -10
s-1.5 -8.66699 -5.5 -12c-0.666992 0 -1.16699 -0.166992 -1.5 -0.5l-1.5 -1.5c-0.666992 0 -1.16699 -0.333008 -1.5 -1s-0.5 -1.33398 -0.5 -2.00098s0.166992 -1 0.5 -1h0.5c1.33301 -0.666992 2.16602 -0.666992 2.49902 0s0.5 1.33398 0.5 2.00098
c1.33301 2 2.83301 3.66699 4.5 5s3.16699 2.33301 4.5 3c3.33301 1.33301 6.33301 1.66602 9 0.999023s5 -2.66699 7 -6c2 -2 2.66699 -4.33301 2 -7s-2 -5.33398 -4 -8.00098c-2 -2 -4.33301 -3.5 -7 -4.5s-5.33398 -1.83301 -8.00098 -2.5h-3.5c-1 0 -1.5 -1 -1.5 -3
c0.666992 -1.33301 1.5 -2.33301 2.5 -3s2.16699 -1 3.5 -1h8c2.66699 0 5 -1.33301 7 -4s3.33301 -5.16699 4 -7.5s0.333984 -4.83301 -0.999023 -7.5c-2 -2.66699 -4.66699 -4.5 -8 -5.5s-6.33301 -0.833008 -9 0.5c-1.33301 0.666992 -2.5 1.5 -3.5 2.5
s-2.16699 1.83301 -3.5 2.5c0 0.666992 -0.333008 1.16699 -1 1.5s-1.33398 0.5 -2.00098 0.5c-0.666992 -0.666992 -1 -1.33398 -1 -2.00098v-2c0 -2 0.333008 -3.83301 1 -5.5s1.33398 -3.5 2.00098 -5.5l10 -15.5l10 -15.5c0.666992 -0.666992 1.33398 -1.5 2.00098 -2.5
s1.66699 -1.83301 3 -2.5s2.66602 -1 3.99902 -1s2.66602 0.666992 3.99902 2c2 2.66699 3.66699 5.16699 5 7.5s2.33301 4.83301 3 7.5c1.33301 3.33301 3 6.16602 5 8.49902s4.33301 4.5 7 6.5c5.33301 3.33301 11 5.83301 17 7.5s12.333 2.83398 19 3.50098
c8.66699 1.33301 17.334 1.66602 26.001 0.999023s17.334 -2 26.001 -4c7.33301 -1.33301 14.666 -3.5 21.999 -6.5s14.333 -6.83301 21 -11.5c2 -2 3.66699 -4.16699 5 -6.5s2.33301 -4.5 3 -6.5c-0.666992 -3.33301 -1 -6.5 -1 -9.5v-8.5v0z" />
    <glyph glyph-name="uniE90D" unicode="&#xe90d;" 
d="M872 337c0 -43.333 -8.33203 -84.999 -24.999 -124.999c-16.667 -40.667 -39.5 -76.834 -68.5 -108.501s-63.167 -57.834 -102.5 -78.501c-38.667 -20 -80.667 -32 -126 -36c-49.333 -3.33301 -96.333 1.66699 -141 15s-84.5 33.5 -119.5 60.5s-64.167 60.5 -87.5 100.5
c-23.333 39.333 -38.666 83 -45.999 131c-4 30 -5 59.333 -3 88c1.33301 28.667 5.66602 56.834 12.999 84.501s16.666 54.834 27.999 81.501c12 26.667 25.667 52.667 41 78c16.667 26.667 34.334 52.334 53.001 77.001c18.667 24 38.5 47.167 59.5 69.5
s43.167 43.5 66.5 63.5s47.666 39.333 72.999 58c7.33301 5.33301 14.5 9.16602 21.5 11.499s14.833 0.166016 23.5 -6.50098c36.667 -27.333 71.334 -56 104.001 -86c33.333 -30 63.666 -62.167 90.999 -96.5s52 -70.833 74 -109.5c21.333 -38.667 39 -80.334 53 -125.001
c6.66699 -21.333 11.5 -43.666 14.5 -66.999s4.16699 -50 3.5 -80v0zM791.001 358.001c-2.66699 22.667 -6.16895 46.333 -10.502 71s-11.166 49 -20.499 73c-12.667 30 -27 58.333 -43 85s-33.667 52.167 -53 76.5s-40 47.5 -62 69.5c-22.667 22 -46 43.333 -70 64
c-8 6.66699 -15.167 9.33398 -21.5 8.00098s-13.166 -5 -20.499 -11c-34 -28.667 -65.833 -59.167 -95.5 -91.5s-56.167 -67.5 -79.5 -105.5c-27.333 -44 -48.5 -89.667 -63.5 -137s-19.167 -97.333 -12.5 -150c4.66699 -34 15 -65.667 31 -95
c15.333 -29.333 35.333 -54.833 60 -76.5s53.334 -38.5 86.001 -50.5s67.667 -17.333 105 -16c38.667 1.33301 74.667 9.66602 108 24.999c32.667 15.333 61.167 35.833 85.5 61.5s43.166 55.5 56.499 89.5s20 70.667 20 110v0zM486.999 117
c-24 0.666992 -48.3301 6.99902 -72.9971 18.999c-24 12.667 -45.667 28.667 -65 48s-35.333 41.333 -48 66c-12.667 24 -19.334 48 -20.001 72c0 6.66699 0.666992 13 2 19s6.66602 9 15.999 9h24c8 0 13 -6.66699 15 -20c8 -44 25 -79.167 51 -105.5
s61.333 -43.166 106 -50.499c12.667 -2.66699 19 -8 19 -16v-24c0 -9.33301 -2.83301 -14.5 -8.5 -15.5s-11.834 -1.5 -18.501 -1.5v0z" />
    <glyph glyph-name="uniE90E" unicode="&#xe90e;" 
d="M512 914c-64 0 -124.333 -12.333 -181 -37c-56.667 -24 -106.167 -57.167 -148.5 -99.5s-75.5 -91.833 -99.5 -148.5c-24.667 -56.667 -37 -117 -37 -181s12.333 -124.333 37 -181c24 -56.667 57.167 -106.167 99.5 -148.5s91.833 -75.5 148.5 -99.5
c56.667 -24.667 117 -37 181 -37s124.333 12.333 181 37c56.667 24 106.167 57.167 148.5 99.5s75.5 91.833 99.5 148.5c24.667 56.667 37 117 37 181s-12.333 124.333 -37 181c-24 56.667 -57.167 106.167 -99.5 148.5s-91.833 75.5 -148.5 99.5
c-56.667 24.667 -117 37 -181 37v0zM580 736l0.5 0.500977c0.333008 0.333008 0.833008 1.16602 1.5 2.49902c8 -16 14.5 -32 19.5 -48s7.5 -33.333 7.5 -52c-4.66699 1.33301 -9 2.5 -13 3.5s-8 2.16699 -12 3.5c-0.666992 0 -1.5 0.666992 -2.5 2s-1.5 2.33301 -1.5 3
v42.5v42.5zM530 571.001c2.66699 7.33301 5.66895 14.167 9.00195 20.5s8 11.833 14 16.5c12 8.66699 25 11.167 39 7.5s25.333 -12.167 34 -25.5c5.33301 -10 9.66602 -21.5 12.999 -34.5s5.33301 -27.5 6 -43.5c0.666992 -14.667 -1.33301 -29 -6 -43s-12.667 -27 -24 -39
c-8 -8 -16.667 -13.167 -26 -15.5s-19 -1.5 -29 2.5c-10.667 3.33301 -19.334 8.83301 -26.001 16.5s-10.667 17.167 -12 28.5c-2 18 -2.33301 36.167 -1 54.5s4.33301 36.5 9 54.5v0zM443.002 738.002c0.666992 -1.33301 1 -2.66504 1 -3.99805v-4v-38v-39
c0 -2.66699 -0.5 -4.83398 -1.5 -6.50098s-2.83301 -2.5 -5.5 -2.5l-10.5 -2c-3.66699 -0.666992 -7.16699 -1.66699 -10.5 -3c-0.666992 18 1.5 35.167 6.5 51.5s11.833 32.166 20.5 47.499v0zM369.002 542.003c2 9.33301 4.66602 18.501 7.99902 27.501s8 17.5 14 25.5
c6.66699 8.66699 15.667 15 27 19s22 4.33301 32 1c9.33301 -2.66699 16.333 -7.5 21 -14.5s8.66699 -14.5 12 -22.5c1.33301 -4.66699 2.5 -9.33398 3.5 -14.001s1.83301 -9.33398 2.5 -14.001l2 -24.5c0.666992 -8.33301 1.33398 -17.5 2.00098 -27.5
c-0.666992 -6.66699 -1.16699 -14 -1.5 -22s-1.5 -16 -3.5 -24c-4.66699 -14 -13.5 -24.5 -26.5 -31.5s-26.5 -8.83301 -40.5 -5.5c-6 1.33301 -11.333 3.83301 -16 7.5s-8.66699 7.83398 -12 12.501c-10.667 16.667 -18.167 33.667 -22.5 51s-4.83301 36 -1.5 56v0z
M270.001 600.004h1.50195h0.5v-44v-44c-4.66699 -2 -9.33398 -3.66699 -14.001 -5s-9.33398 -3 -14.001 -5c0 18 2.33301 35.167 7 51.5s11 31.833 19 46.5zM268.003 329.004c-6.66699 16 -12.1689 32.166 -16.502 48.499s-6.83301 33.166 -7.5 50.499
c-0.666992 5.33301 -0.666992 10.833 0 16.5s1.66699 11.167 3 16.5c3.33301 11.333 9.5 18.833 18.5 22.5s18.833 2.83398 29.5 -2.49902c8 -4 15.333 -9.33301 22 -16s12.334 -13.667 17.001 -21c7.33301 -10.667 14.333 -21.5 21 -32.5l20 -33.5
c10.667 -19.333 9.83398 -38.666 -2.49902 -57.999s-31.166 -29 -56.499 -29c-10 0.666992 -19.333 4.16699 -28 10.5s-15.334 15.5 -20.001 27.5v0zM694.001 187.003c-4.66699 -7.33301 -10.1631 -14.002 -16.4961 -20.002s-14.166 -9.33301 -23.499 -10
c-6 0 -12 0.5 -18 1.5s-12 2.5 -18 4.5c-11.333 2.66699 -22.666 5.83398 -33.999 9.50098s-23 6.83398 -35 9.50098c-16 4 -32.167 5.83301 -48.5 5.5s-32.5 -2.83301 -48.5 -7.5c-9.33301 -2 -18.333 -4.66699 -27 -8s-17.667 -6 -27 -8
c-6.66699 -2 -13.334 -3.66699 -20.001 -5s-13.334 -2 -20.001 -2c-8.66699 0 -15.834 2.66699 -21.501 8s-10.834 11.333 -15.501 18c-2 2 -4 4.33301 -6 7s-3.66699 5.66699 -5 9c-4.66699 9.33301 -5.5 18.166 -2.5 26.499s8.5 15.5 16.5 21.5
c8.66699 8 17.834 15.5 27.501 22.5l29.5 20.5c8.66699 6 16.667 12.667 24 20s14 15.666 20 24.999l16.5 23c5.66699 8 11.5 15.667 17.5 23c6 6.66699 13.167 11.334 21.5 14.001s18.166 4 29.499 4c10.667 0.666992 20.667 -2.16602 30 -8.49902
s17.666 -14.5 24.999 -24.5l12 -15.5c4 -5 7.66699 -10.167 11 -15.5c6.66699 -9.33301 14 -17.666 22 -24.999s16.667 -14 26 -20c8.66699 -5.33301 17.167 -10.833 25.5 -16.5s16.166 -11.834 23.499 -18.501c12.667 -10.667 19.667 -21.167 21 -31.5
s-2.66699 -22.5 -12 -36.5v0zM743.005 319.001c-7.33301 -14.667 -18.5039 -24.502 -33.5039 -29.502s-29.5 -3.83301 -43.5 3.5c-13.333 6.66699 -23.833 15.5 -31.5 26.5s-12.167 23.833 -13.5 38.5c-1.33301 8 -0.666016 14.167 2.00098 18.5s7.66699 8.16602 15 11.499
c10.667 4.66699 20.334 10.334 29.001 17.001s15.667 15.334 21 26.001c2.66699 5.33301 5.33398 10.333 8.00098 15s5.66699 9.33398 9 14.001c1.33301 2 2.66602 4.16699 3.99902 6.5s3 4.5 5 6.5c6.66699 8.66699 13.834 12.5 21.501 11.5s14.834 -5.83301 21.501 -14.5
c4 -5.33301 6.83301 -11.5 8.5 -18.5s2.16699 -15.5 1.5 -25.5c-0.666992 -18.667 -3 -37 -7 -55s-9.66699 -35.333 -17 -52v0zM752.001 511.999l0.00195312 44v44h0.5h1.5c8 -14.667 14.333 -30.167 19 -46.5s7 -33.5 7 -51.5c-4.66699 2 -9.33398 3.66699 -14.001 5
s-9.33398 3 -14.001 5v0z" />
    <glyph glyph-name="uniE90F" unicode="&#xe90f;" 
d="M51 277c17.333 -46.667 41.333 -89.667 72 -129c30 -39.333 65 -73.166 105 -101.499s84.333 -50.5 133 -66.5c48 -16 98.333 -24 151 -24s103 8 151 24c48.667 16 93 38.167 133 66.5s75 62.166 105 101.499c30.667 39.333 54.667 82.333 72 129l-461 43l-461 -43v0z
" />
    <glyph glyph-name="uniE910" unicode="&#xe910;" 
d="M512 940c-52.667 0 -103 -8 -151 -24c-48.667 -16 -93 -38.167 -133 -66.5s-75 -62.166 -105 -101.499c-30.667 -39.333 -54.667 -82.333 -72 -129l461 -43l461 43c-17.333 46.667 -41.333 89.667 -72 129c-30 39.333 -65 73.166 -105 101.499s-84.333 50.5 -133 66.5
c-48 16 -98.333 24 -151 24v0z" />
    <glyph glyph-name="uniE911" unicode="&#xe911;" 
d="M51 619c-10 -26.667 -17.667 -54.334 -23 -83.001s-8 -58 -8 -88s2.66699 -59.333 8 -88s13 -56.334 23 -83.001h922c10 26.667 17.5 54.334 22.5 83.001s7.5 58 7.5 88s-2.5 59.333 -7.5 88s-12.5 56.334 -22.5 83.001h-922v0z" />
    <glyph glyph-name="uniE912" unicode="&#xe912;" 
d="M195 839l394 -391l-391 -394l120 -119l510 514l-514 510z" />
    <glyph glyph-name="uniE913" unicode="&#xe913;" 
d="M20 448c0 -30 2.66699 -59.333 8 -88s13 -56.334 23 -83.001l461 -43l461 43c10 26.667 17.667 54.334 23 83.001s8 58 8 88s-2.66699 59.333 -8 88s-13 56.334 -23 83.001l-461 43l-461 -43c-10 -26.667 -17.667 -54.334 -23 -83.001s-8 -58 -8 -88v0v0z" />
    <glyph glyph-name="uniE914" unicode="&#xe914;" 
d="M973 619c-17.333 46.667 -41.333 89.667 -72 129c-30 39.333 -65 73.166 -105 101.499s-84.333 50.5 -133 66.5c-48 16 -98.333 24 -151 24s-103 -8 -151 -24c-48.667 -16 -93 -38.167 -133 -66.5s-75 -62.166 -105 -101.499c-30.667 -39.333 -54.667 -82.333 -72 -129
h922z" />
    <glyph glyph-name="uniE915" unicode="&#xe915;" 
d="M1004 448c0 -68 -13 -131.667 -39 -191c-26 -60 -61.167 -112.167 -105.5 -156.5s-96.5 -79.5 -156.5 -105.5c-59.333 -26 -123 -39 -191 -39s-131.667 13 -191 39c-60 26 -112.167 61.167 -156.5 105.5s-79.5 96.5 -105.5 156.5c-26 59.333 -39 123 -39 191
s13 131.667 39 191c26 60 61.167 112.167 105.5 156.5s96.5 79.5 156.5 105.5c59.333 26 123 39 191 39s131.667 -13 191 -39c60 -26 112.167 -61.167 156.5 -105.5s79.5 -96.5 105.5 -156.5c26 -59.333 39 -123 39 -191v0z" />
    <glyph glyph-name="uniE916" unicode="&#xe916;" 
d="M1004 448c0 52.667 -8 103 -24 151c-16 48.667 -38.167 93 -66.5 133s-62.166 75 -101.499 105c-39.333 30.667 -82.333 54.667 -129 72v-922c46.667 17.333 89.667 41.333 129 72c39.333 30 73.166 65 101.499 105s50.5 84.333 66.5 133c16 48 24 98.333 24 151v0v0z
" />
    <glyph glyph-name="uniE917" unicode="&#xe917;" 
d="M20 448c0 -52.667 8 -103 24 -151c16 -48.667 38.167 -93 66.5 -133s62.166 -75 101.499 -105c39.333 -30.667 82.333 -54.667 129 -72v922c-46.667 -17.333 -89.667 -41.333 -129 -72c-39.333 -30 -73.166 -65 -101.499 -105s-50.5 -84.333 -66.5 -133
c-16 -48 -24 -98.333 -24 -151v0v0z" />
    <glyph glyph-name="uniE918" unicode="&#xe918;" 
d="M1004 448c0 -68 -13 -131.667 -39 -191c-26 -60 -61.167 -112.167 -105.5 -156.5s-96.5 -79.5 -156.5 -105.5c-59.333 -26 -123 -39 -191 -39s-131.667 13 -191 39c-60 26 -112.167 61.167 -156.5 105.5s-79.5 96.5 -105.5 156.5c-26 59.333 -39 123 -39 191
s13 131.667 39 191c26 60 61.167 112.167 105.5 156.5s96.5 79.5 156.5 105.5c59.333 26 123 39 191 39s131.667 -13 191 -39c60 -26 112.167 -61.167 156.5 -105.5s79.5 -96.5 105.5 -156.5c26 -59.333 39 -123 39 -191v0z" />
    <glyph glyph-name="uniE919" unicode="&#xe919;" 
d="M122 747c-19.333 -24.667 -36.167 -51.5 -50.5 -80.5s-25.833 -59.167 -34.5 -90.5h256z" />
    <glyph glyph-name="uniE91A" unicode="&#xe91a;" 
d="M987 576c-8.66699 31.333 -20.168 61.5 -34.501 90.5s-31.166 55.833 -50.499 80.5l-171 -171h256z" />
    <glyph glyph-name="uniE91B" unicode="&#xe91b;" 
d="M37 320c8.66699 -31.333 20.168 -61.5 34.501 -90.5s31.166 -55.833 50.499 -80.5l171 171h-256v0z" />
    <glyph glyph-name="uniE91C" unicode="&#xe91c;" 
d="M811 838c-24.667 19.333 -51.5 36.167 -80.5 50.5s-59.167 25.833 -90.5 34.5v-256z" />
    <glyph glyph-name="uniE91D" unicode="&#xe91d;" 
d="M213 58c24.667 -19.333 51.5 -36.167 80.5 -50.5s59.167 -25.833 90.5 -34.5v256z" />
    <glyph glyph-name="uniE91E" unicode="&#xe91e;" 
d="M384 923c-31.333 -8.66699 -61.5 -20.168 -90.5 -34.501s-55.833 -31.166 -80.5 -50.499l171 -171v256z" />
    <glyph glyph-name="uniE91F" unicode="&#xe91f;" 
d="M640 -27c31.333 8.66699 61.5 20.168 90.5 34.501s55.833 31.166 80.5 50.499l-171 171v-256z" />
    <glyph glyph-name="uniE920" unicode="&#xe920;" 
d="M731 320l171.001 -171c19.333 24.667 36.166 51.5 50.499 80.5s25.833 59.167 34.5 90.5h-256z" />
    <glyph glyph-name="uniE921" unicode="&#xe921;" 
d="M999 512h-423v423c-10.667 1.33301 -21.334 2.5 -32.001 3.5s-21.334 1.5 -32.001 1.5s-21.334 -0.5 -32.001 -1.5s-21.334 -2.16699 -32.001 -3.5v-423h-423c-1.33301 -10.667 -2.5 -21.334 -3.5 -32.001s-1.5 -21.334 -1.5 -32.001s0.5 -21.334 1.5 -32.001
s2.16699 -21.334 3.5 -32.001h423v-423c10.667 -1.33301 21.334 -2.5 32.001 -3.5s21.334 -1.5 32.001 -1.5s21.334 0.5 32.001 1.5s21.334 2.16699 32.001 3.5v423h423c1.33301 10.667 2.5 21.334 3.5 32.001s1.5 21.334 1.5 32.001s-0.5 21.334 -1.5 32.001
s-2.16699 21.334 -3.5 32.001v0z" />
    <glyph glyph-name="uniE922" unicode="&#xe922;" 
d="M640 320l220 -219.999l14.5 16c5 5.33301 9.5 10.666 13.5 15.999l-187 188h-61v0z" />
    <glyph glyph-name="uniE923" unicode="&#xe923;" 
d="M384 320l-219.999 -220l16 -14.5c5.33301 -5 10.666 -9.5 15.999 -13.5l188 187v61v0z" />
    <glyph glyph-name="uniE924" unicode="&#xe924;" 
d="M384 576l-220 219.999l-14.5 -16c-5 -5.33301 -9.5 -10.666 -13.5 -15.999l187 -188h61v0z" />
    <glyph glyph-name="uniE925" unicode="&#xe925;" 
d="M640 576l219.999 220l-16 14.5c-5.33301 5 -10.666 9.5 -15.999 13.5l-188 -187v-61z" />
    <glyph glyph-name="uniE926" unicode="&#xe926;" 
d="M512 932c-66.667 0 -129.334 -12.667 -188.001 -38c-59.333 -25.333 -110.833 -59.833 -154.5 -103.5s-78.167 -95.167 -103.5 -154.5c-25.333 -58.667 -38 -121.334 -38 -188.001s12.667 -129.334 38 -188.001c25.333 -59.333 59.833 -110.833 103.5 -154.5
s95.167 -78.167 154.5 -103.5c58.667 -25.333 121.334 -38 188.001 -38s129.334 12.667 188.001 38c59.333 25.333 110.833 59.833 154.5 103.5s78.167 95.167 103.5 154.5c25.333 58.667 38 121.334 38 188.001s-12.667 129.334 -38 188.001
c-25.333 59.333 -59.833 110.833 -103.5 154.5s-95.167 78.167 -154.5 103.5c-58.667 25.333 -121.334 38 -188.001 38v0zM525 389c0 -10.667 0.166992 -20.8398 0.5 -30.5068s0.833008 -18.834 1.5 -27.501c3.33301 -2 6.5 -4 9.5 -6s6.16699 -3.66699 9.5 -5
c5.33301 -2 10.666 -4.16699 15.999 -6.5s10.666 -4.5 15.999 -6.5c19.333 -8 39 -14.833 59 -20.5l60 -17.5c9.33301 -2.66699 19.666 -6.66699 30.999 -12s17.333 -14 18 -26c0.666992 -12.667 -4.83301 -23 -16.5 -31s-22.5 -14.333 -32.5 -19
c-14.667 -6.66699 -30.334 -10.667 -47.001 -12s-33.334 -2 -50.001 -2l-52.5 2c-17.667 0.666992 -35.5 0.666992 -53.5 0c-10.667 0 -21.334 -0.166992 -32.001 -0.5s-21.334 -0.166016 -32.001 0.500977c-8.66699 0 -17.667 0.333008 -27 1s-18.333 2 -27 4l-23.5 8
l-22.5 8l-30.5 12.5c-10.333 4.33301 -19.833 9.16602 -28.5 14.499c-4.66699 3.33301 -9.83398 7.5 -15.501 12.5s-7.16699 10.833 -4.5 17.5c0.666992 2.66699 2.33398 4.16699 5.00098 4.5s4.66699 -0.166992 6 -1.5c5.33301 0.666992 10.5 1.66699 15.5 3l14.5 4
c5.33301 1.33301 10.666 2.5 15.999 3.5s10.666 2.16699 15.999 3.5c8.66699 2 16.834 4.83301 24.501 8.5s15.834 5.83398 24.501 6.50098c6.66699 0.666992 13.334 1 20.001 1s12.334 2.66699 17.001 8c2.66699 2.66699 5.16699 5.5 7.5 8.5s4.83301 5.5 7.5 7.5
c4.66699 2 9 3.5 13 4.5s8.33301 2.16699 13 3.5c5.33301 1.33301 10 3.33301 14 6s8.33301 5.33398 13 8.00098c3.33301 2.66699 7 4.83398 11 6.50098s8 2.83398 12 3.50098c0 8 0.166992 16.333 0.5 25s0.833008 17.667 1.5 27v36.5c0 12.333 -0.333008 24.5 -1 36.5
c0 6.66699 -0.333008 13 -1 19l-2 18c0 1.33301 -0.166992 2.66602 -0.5 3.99902s-0.833008 3 -1.5 5v4c-0.666992 0.666992 -1 1.33398 -1 2.00098v2c-0.666992 0.666992 -1 1.33398 -1 2.00098s-0.333008 1.33398 -1 2.00098c0 0.666992 -0.166992 1.33398 -0.5 2.00098
s-0.5 1.33398 -0.5 2.00098l-2 4l-2 4c0 0.666992 -0.166992 1.16699 -0.5 1.5s-0.5 0.833008 -0.5 1.5c-9.33301 -8 -21.666 -13.167 -36.999 -15.5s-33.333 -0.833008 -54 4.5c-56 16 -87.667 40 -95 72s-39 54.667 -95 68l77 14.5
c51.333 9.66699 106 -1.16602 164 -32.499c28.667 -15.333 46.334 -33.166 53.001 -53.499s4.33398 -37.166 -6.99902 -50.499c0.666992 -1.33301 1.33398 -2.33301 2.00098 -3l2 -2c0.666992 -1.33301 1.5 -2.66602 2.5 -3.99902s1.83301 -3 2.5 -5
c0 -0.666992 0.166992 -1.33398 0.5 -2.00098s0.5 -1.33398 0.5 -2.00098c0.666992 -0.666992 1.16699 -1.33398 1.5 -2.00098s0.5 -1.33398 0.5 -2.00098c0.666992 -1.33301 1 -2.33301 1 -3s0.333008 -1.33398 1 -2.00098l1 -5
c0.666992 -1.33301 1.16699 -2.66602 1.5 -3.99902s0.5 -3 0.5 -5c0.666992 -2 1.16699 -3.83301 1.5 -5.5s0.5 -3.5 0.5 -5.5c0.666992 2 1.16699 4 1.5 6s0.5 3.66699 0.5 5c0.666992 2 1.16699 3.66699 1.5 5s0.833008 2.66602 1.5 3.99902l1 5
c0 0.666992 0.166992 1.33398 0.5 2.00098s0.5 1.66699 0.5 3c0.666992 0.666992 1.16699 1.33398 1.5 2.00098s0.5 1.33398 0.5 2.00098s0.166992 1.33398 0.5 2.00098s0.833008 1.33398 1.5 2.00098c0.666992 2 1.33398 3.66699 2.00098 5l2 4
c0.666992 0 1.16699 0.333008 1.5 1s0.5 1.33398 0.5 2.00098c-12 13.333 -14.833 30.333 -8.5 51s24.166 39 53.499 55c58 31.333 112.667 42.166 164 32.499l77 -14.5c-56 -13.333 -87.667 -36 -95 -68s-39 -55.667 -95 -71c-19.333 -6 -36.5 -8 -51.5 -6
s-27.167 6.66699 -36.5 14l-0.5 -0.5l-0.5 -0.5l-2 -4c-0.666992 -1.33301 -1 -2.66602 -1 -3.99902c-0.666992 -0.666992 -1 -1.33398 -1 -2.00098s-0.333008 -1.33398 -1 -2.00098c0 -0.666992 -0.166992 -1.33398 -0.5 -2.00098s-0.5 -1.33398 -0.5 -2.00098
s-0.166992 -1.33398 -0.5 -2.00098s-0.5 -1.33398 -0.5 -2.00098l-1 -4c0 -1.33301 -0.166992 -2.83301 -0.5 -4.5s-0.5 -3.16699 -0.5 -4.5c-1.33301 -6 -2.16602 -12 -2.49902 -18s-0.833008 -12 -1.5 -18v-37.5c0 -12.333 0.333008 -24.166 1 -35.499v0zM499 314.994h0.5
h0.5v0v0v5c0 1.33301 0.333008 3 1 5v5.5v6.5h-0.5h-0.5v-6v-6c0 -2 -0.166992 -3.66699 -0.5 -5s-0.5 -3 -0.5 -5v0zM494 540.994c-2.66699 4 -5.66699 7.83398 -9 11.501l-10 10.5c-4 3.33301 -8 6.5 -12 9.5s-8 5.83301 -12 8.5c-8 5.33301 -15.5 9.66602 -22.5 12.999
s-13.167 6 -18.5 8c-4.66699 2 -8.5 3.5 -11.5 4.5l-4.5 1.5l4 -1.5c2.66699 -1 6.66699 -2.83301 12 -5.5l17 -9.5c6.66699 -3.66699 13.667 -8.5 21 -14.5l11 -9c4 -3.33301 7.66699 -6.66602 11 -9.99902l9.5 -11.5c3 -3.66699 5.83301 -7.83398 8.5 -12.501
c0.666992 1.33301 1.66699 2.5 3 3.5s2.33301 2.16699 3 3.5v0zM527 324.995v-4.5v-3.5h0.5h0.5v4v4c-0.666992 0.666992 -1 1.66699 -1 3v3v0v0v-3v-3v0zM539 531.995c2 4.66699 4.66797 9.16797 8.00098 13.501s6.66602 8.16602 9.99902 11.499c3.33301 4 7 7.66699 11 11
l11 9l21.5 14c6.33301 4 12.166 7.33301 17.499 10c4.66699 2 8.33398 3.66699 11.001 5l4 2l-4 -1.5l-12 -4.5l-18 -8c-7.33301 -3.33301 -14.666 -7.66602 -21.999 -12.999l-12.5 -8.5c-4.33301 -3 -8.5 -6.5 -12.5 -10.5c-4 -3.33301 -7.66699 -6.83301 -11 -10.5
s-6.66602 -7.83398 -9.99902 -12.501c1.33301 -1.33301 2.66602 -2.5 3.99902 -3.5s2.66602 -2.16699 3.99902 -3.5v0zM503.001 388.996c-0.666992 -9.33301 -1.16895 -18.334 -1.50195 -27.001s-0.5 -17 -0.5 -25c3.33301 0.666992 7 0.666992 11 0s7.66699 -1.66699 11 -3
c0.666992 -0.666992 1.33398 -1.16699 2.00098 -1.5s1.33398 -0.5 2.00098 -0.5c-0.666992 8.66699 -1.16699 17.834 -1.5 27.501s-0.833008 19.5 -1.5 29.5c-0.666992 12 -1.5 24.167 -2.5 36.5s-2.16699 24.833 -3.5 37.5l-2 13.5l-2 13.5
c-1.33301 -4.66699 -2.33301 -9.16699 -3 -13.5l-2 -13.5c-1.33301 -12.667 -2.5 -25.167 -3.5 -37.5s-1.83301 -24.5 -2.5 -36.5v0zM512.999 312.995c-0.666992 0 -1.33398 -0.165039 -2.00098 -0.498047s-1.33398 -0.833008 -2.00098 -1.5
c-0.666992 1.33301 -1.66699 2.33301 -3 3s-3 1 -5 1c-0.666992 -4 -1 -8.16699 -1 -12.5v-11.5h-2c0 3.33301 0.166992 7.16602 0.5 11.499s0.5 8.5 0.5 12.5c-2.66699 0 -5 -1 -7 -3s-4 -4.33301 -6 -7c-0.666992 -1.33301 -1 -2.66602 -1 -3.99902
s0.333008 -2.33301 1 -3c-1.33301 -5.33301 -0.5 -10 2.5 -14s7.16699 -6.66699 12.5 -8c6.66699 -2 13.5 -2.5 20.5 -1.5s13.5 3.16699 19.5 6.5c5.33301 4 8.83301 9 10.5 15s0.5 11.667 -3.5 17c-3.33301 3.33301 -6.66602 5.33301 -9.99902 6s-6.66602 0 -9.99902 -2
c0 -4.66699 0.166992 -9.16699 0.5 -13.5s0.5 -8.5 0.5 -12.5h-2v12v14c-1.33301 -0.666992 -2.5 -1.33398 -3.5 -2.00098s-1.83301 -1.33398 -2.5 -2.00098h-4h-4v0z" />
    <glyph glyph-name="uniE927" unicode="&#xe927;" 
d="M993 473l0.00292969 18.002c-31.333 16 -58.5 36.5 -81.5 61.5s-40.167 52.833 -51.5 83.5h-1v0h-62v0h-1c-9.33301 -26.667 -23.333 -50.334 -42 -71.001s-40.334 -38 -65.001 -52s-52 -24.667 -82 -32c-30 -6.66699 -61.333 -10 -94 -10c-33.333 0 -65 3.33301 -95 10
c-30 7.33301 -57.333 18 -82 32s-46.334 31.333 -65.001 52c-18.667 20 -32.667 43.667 -42 71h-2v0h-62v-2c-10.667 -30 -27.5 -57.333 -50.5 -82s-50.167 -45 -81.5 -61v-17c6 2 11.667 4.66699 17 8s10.333 6.66602 15 9.99902v-84h-31v-34h131v-114h63v113h569v-113h62
v113h134v35h-31v83l15 -9c5.33301 -3.33301 10.666 -6.33301 15.999 -9v0v0zM122.003 407.002h-48v89c8.66699 6 17.167 12.5 25.5 19.5s15.833 14.167 22.5 21.5v-130zM165.003 407.002l-34.002 -0.000976562v140c6.66699 7.33301 12.834 14.833 18.501 22.5
s10.834 15.834 15.501 24.501v-187zM266.001 407.001h-37.998v190c5.33301 -9.33301 11.166 -18.333 17.499 -27s13.166 -16.667 20.499 -24v-139zM335.003 407.001h-60.999v130c8.66699 -8.66699 18.167 -16.5 28.5 -23.5s21.166 -13.167 32.499 -18.5v-88z
M403.004 407.001h-59.999v83c9.33301 -4.66699 19.166 -8.66699 29.499 -12s20.5 -6.33301 30.5 -9v-62zM472.005 407.001l-60 0.000976562v59c10 -2 20 -3.83301 30 -5.5s20 -2.83398 30 -3.50098v-50v0zM541.005 407.002h-60.002v49c5.33301 0 10.5 -0.166992 15.5 -0.5
s10.5 -0.5 16.5 -0.5c4.66699 0 9.33398 0.166992 14.001 0.5s9.33398 0.5 14.001 0.5v-49zM610.003 407.002h-59.999v50c10 0.666992 20.167 1.66699 30.5 3s20.166 3.33301 29.499 6v-59v0zM679.004 407.002h-60v61c10.667 2.66699 21 5.66699 31 9s19.667 7.33301 29 12
v-82zM748.004 407.002l-60 -0.000976562v86c10.667 5.33301 21.167 11.333 31.5 18s19.833 14.334 28.5 23.001v-127v0zM797.004 407.001h-40v136c7.33301 7.33301 14.5 15.5 21.5 24.5s13.167 18.5 18.5 28.5v-189zM896.004 407.001l-37 -0.00195312v190
c5.33301 -9.33301 11 -18.166 17 -26.499s12.667 -16.166 20 -23.499v-140zM953.004 406.999h-49v130c7.33301 -7.33301 15 -14.5 23 -21.5s16.667 -13.5 26 -19.5v-89z" />
    <glyph glyph-name="uniE928" unicode="&#xe928;" 
d="M979 494c-6.66699 -29.333 -18.1641 -54.8359 -34.4971 -76.5029s-38.5 -38.5 -66.5 -50.5c-11.333 -4.66699 -22.5 -8 -33.5 -10s-22.167 -2.66699 -33.5 -2c-9.33301 0.666992 -17 3.33398 -23 8.00098s-9.33301 11.667 -10 21
c-1.33301 9.33301 0.666992 17.166 6 23.499s12.666 10.5 21.999 12.5c5.33301 1.33301 10.833 2 16.5 2s11.167 0.666992 16.5 2c23.333 6.66699 41.5 19.667 54.5 39s18.167 41.333 15.5 66c-2.66699 23.333 -12.834 43.166 -30.501 59.499s-38.167 25.5 -61.5 27.5
c-9.33301 0.666992 -18.5 0.5 -27.5 -0.5s-18.167 -2.83301 -27.5 -5.5c-8.66699 -2.66699 -14.5 -2.5 -17.5 0.5s-4.5 8.83301 -4.5 17.5c-0.666992 33.333 -9.83398 61.333 -27.501 84s-41.834 38.334 -72.501 47.001c-9.33301 2.66699 -18.833 4.16699 -28.5 4.5
s-19.167 -0.166992 -28.5 -1.5c-6.66699 -1.33301 -12.5 -1.16602 -17.5 0.500977s-9.83301 4.83398 -14.5 9.50098c-21.333 19.333 -44 34.333 -68 45c-24.667 10 -49.667 15.167 -75 15.5s-50.666 -3.83398 -75.999 -12.501c-24.667 -9.33301 -47.667 -23 -69 -41
c-20.667 -18 -36 -38.5 -46 -61.5s-16.333 -47.5 -19 -73.5c-1.33301 -10.667 -3.66602 -19.5 -6.99902 -26.5s-10 -13.167 -20 -18.5c-20.667 -10.667 -34.834 -26 -42.501 -46s-8.5 -41 -2.5 -63c4.66699 -20 15 -36.167 31 -48.5s35.333 -19.166 58 -20.499
c10.667 0 19.834 -2 27.501 -6s12.5 -12 14.5 -24c1.33301 -9.33301 -0.833984 -17.333 -6.50098 -24s-13.5 -10.667 -23.5 -12c-46 -4.66699 -86 6.83301 -120 34.5s-53.333 64.167 -58 109.5c-0.666992 2 -1.33398 4.16699 -2.00098 6.5s-1.33398 4.5 -2.00098 6.5v2.5
v2.5c0.666992 2.66699 1.33398 5.16699 2.00098 7.5s1.33398 4.83301 2.00098 7.5c2 21.333 7.5 40.833 16.5 58.5s21.833 32.834 38.5 45.501c8.66699 7.33301 15 15 19 23s7 17 9 27c6 30.667 16.667 58.834 32 84.501s34.666 48.834 57.999 69.501
c21.333 18.667 44 33 68 43s49.333 17.667 76 23h36.5h36.5c23.333 -6 46 -12.833 68 -20.5s42.333 -19.167 61 -34.5c8 -6.66699 16.167 -11.334 24.5 -14.001s17.5 -3.66699 27.5 -3c43.333 0 80.833 -11 112.5 -33s55.167 -53.667 70.5 -95
c2.66699 -8 6.16699 -13.833 10.5 -17.5s10.833 -5.83398 19.5 -6.50098c32.667 -2.66699 60.167 -12.5 82.5 -29.5s39.5 -40.833 51.5 -71.5c2.66699 -6 4.83398 -12 6.50098 -18l5.5 -19v-25v-25v0zM288.003 -10.0029c-12 13.333 -18.335 23.5 -19.002 30.5
s3.33301 18.5 12 34.5l13 23l14 24c6 9.33301 13.667 15.166 23 17.499s18 0.833008 26 -4.5c8.66699 -5.33301 14 -12.166 16 -20.499s0.333008 -17.5 -5 -27.5l-21.5 -40c-7 -13.333 -15.833 -25.333 -26.5 -36c-5.33301 0 -10.666 -0.166992 -15.999 -0.5
s-10.666 -0.5 -15.999 -0.5v0zM621.001 249.997c-0.666992 -2 -1.33203 -4.66895 -1.99902 -8.00195s-2 -6.33301 -4 -9l-16.5 -30c-5.66699 -10 -11.5 -19.667 -17.5 -29c-5.33301 -8.66699 -12.666 -14.167 -21.999 -16.5s-18 -1.16602 -26 3.50098
c-7.33301 4.66699 -12.5 11.334 -15.5 20.001s-2.16699 17.334 2.5 26.001c5.33301 10.667 11.166 21.5 17.499 32.5s13.166 21.833 20.499 32.5c4 6 9.33301 10.333 16 13s14 2.66699 22 0s14 -6.83398 18 -12.501s6.33301 -13.167 7 -22.5v0zM401.003 155.995
c-13.333 0.666992 -23.499 6.00098 -30.499 16.001s-7.5 21 -1.5 33c5.33301 11.333 11.166 22.5 17.499 33.5s12.833 21.5 19.5 31.5c5.33301 8.66699 12.333 14 21 16s17 0.666992 25 -4c8 -4 13.5 -10.333 16.5 -19s2.16699 -17.334 -2.5 -26.001
c-5.33301 -11.333 -11.333 -22.333 -18 -33s-13 -21.334 -19 -32.001c-3.33301 -5.33301 -7.5 -9.16602 -12.5 -11.499s-10.167 -3.83301 -15.5 -4.5v0zM347.004 322.996c-12 0 -21.501 4.50488 -28.501 13.5049s-8.5 18.833 -4.5 29.5
c4.66699 13.333 10.667 26.166 18 38.499s15 24.166 23 35.499c6 7.33301 12.833 11.666 20.5 12.999s15.834 -0.333984 24.501 -5.00098c8 -5.33301 13.167 -11.833 15.5 -19.5s1.5 -15.834 -2.5 -24.501c-6 -11.333 -12.167 -22.333 -18.5 -33l-19.5 -32
c-2.66699 -5.33301 -6.5 -9.33301 -11.5 -12s-10.5 -4 -16.5 -4v0zM567.003 417.001c-0.666992 -1.33301 -1.16895 -3.49707 -1.50195 -6.49707s-1.16602 -5.83301 -2.49902 -8.5l-18 -32c-6 -10.667 -12.333 -21 -19 -31c-5.33301 -8 -12.5 -13 -21.5 -15
s-17.167 -0.666992 -24.5 4c-8 5.33301 -13.5 11.666 -16.5 18.999s-2.16699 15.333 2.5 24c5.33301 12 11.5 23.667 18.5 35l21.5 34c4 6.66699 9.5 11 16.5 13s14.167 1.33301 21.5 -2c7.33301 -2.66699 12.833 -6.83398 16.5 -12.501s5.83398 -12.834 6.50098 -21.501v0z
M647.001 323.004c-12 0.666992 -21.501 5.99902 -28.501 15.999s-7.83301 20.333 -2.5 31c5.33301 12 11.5 23.667 18.5 35l21.5 34c5.33301 8 11.833 12.833 19.5 14.5s15.834 -0.166016 24.501 -5.49902c8 -4.66699 13.5 -10.834 16.5 -18.501
s2.16699 -15.834 -2.5 -24.501c-5.33301 -11.333 -11.333 -22.666 -18 -33.999l-20 -33c-3.33301 -5.33301 -7.5 -9.16602 -12.5 -11.499s-10.5 -3.5 -16.5 -3.5zM320 259.003c-0.666992 -2 -1.16602 -4.33398 -1.49902 -7.00098s-1.16602 -5 -2.49902 -7l-18.5 -33.5
c-6.33301 -11 -12.833 -21.5 -19.5 -31.5c-5.33301 -8.66699 -12 -14 -20 -16s-16.667 -0.333008 -26 5c-8 4 -13.333 10.333 -16 19s-1.66699 17.334 3 26.001l18 33c6 10.667 12.667 21.334 20 32.001c4.66699 7.33301 10.5 12 17.5 14s14.5 1.66699 22.5 -1
c7.33301 -2.66699 12.666 -6.83398 15.999 -12.501s5.66602 -12.5 6.99902 -20.5v0z" />
    <glyph glyph-name="uniE929" unicode="&#xe929;" 
d="M991 473v17.998c-31.333 16 -58.5 36.333 -81.5 61s-40.167 52.334 -51.5 83.001h-1v1h-62v-1l-1 1c-9.33301 -27.333 -23.333 -51.333 -42 -72c-18 -20.667 -39.5 -37.834 -64.5 -51.501s-52.5 -24.167 -82.5 -31.5c-30 -6.66699 -61.333 -10 -94 -10
s-64 3.33301 -94 10c-29.333 7.33301 -56.5 17.833 -81.5 31.5s-46.833 30.834 -65.5 51.501c-18 20.667 -32 44.334 -42 71.001h-1v1h-62v-2c-11.333 -30.667 -28.333 -58.167 -51 -82.5s-49.667 -44.5 -81 -60.5v-18c6 2.66699 11.5 5.5 16.5 8.5l15.5 9.5v-84h-31v-34
h131v-113h62v113h568v-113h62v113h134v34h-32v84l15.5 -9.5c5 -3 10.5 -5.83301 16.5 -8.5v0v0zM122 407.998h-48v88c8.66699 6 17 12.5 25 19.5s15.667 14.167 23 21.5v-129v0zM165 407.998h-34v138l18 23c6 8 11.333 16 16 24v-185zM265 407.998l-37.998 -0.000976562v189
c5.33301 -10 11.166 -19.167 17.499 -27.5s13.166 -16.166 20.499 -23.499v-138zM334.002 407.997h-60v128c8.66699 -8 18 -15.5 28 -22.5s20.667 -13.167 32 -18.5v-87zM402.002 407.997h-59.999v82c9.33301 -4.66699 19.166 -8.66699 29.499 -12s20.5 -6.33301 30.5 -9
v-61v0zM471.003 407.997l-60 0.000976562v58c10 -2 20 -3.83301 30 -5.5s20 -2.83398 30 -3.50098v-49zM540.003 407.998h-60.002v49c5.33301 -0.666992 10.5 -1.16699 15.5 -1.5s10.5 -0.5 16.5 -0.5c4.66699 0 9.33398 0.166992 14.001 0.5s9.33398 0.5 14.001 0.5v-48z
M609.001 407.998h-60v49c10 0.666992 20 1.66699 30 3s20 3.33301 30 6v-58zM677.001 407.998h-60v60c10.667 2.66699 21 5.66699 31 9s19.667 7.33301 29 12v-81zM746.001 407.998h-60v85c11.333 5.33301 22 11.333 32 18s19.333 14 28 22v-125v0zM795.001 407.998h-40v134
c8 8 15.333 16.5 22 25.5s12.667 18.5 18 28.5v-188zM894.001 407.998l-37 -0.000976562v189c5.33301 -9.33301 11 -18.166 17 -26.499s12.667 -16.5 20 -24.5v-138v0zM951.001 407.997h-49v129c7.33301 -7.33301 15 -14.5 23 -21.5s16.667 -13.5 26 -19.5v-88z" />
    <glyph glyph-name="uniE92A" unicode="&#xe92a;" 
d="M528 789c-44.667 0 -86.667 -8.33301 -126 -25s-73.666 -39.667 -102.999 -69s-52.333 -63.666 -69 -102.999c-17.333 -39.333 -26 -81.333 -26 -126s8.66699 -86.667 26 -126c16.667 -39.333 39.667 -73.5 69 -102.5s63.666 -52.167 102.999 -69.5
c39.333 -16.667 81.333 -25 126 -25s86.334 8.33301 125.001 25c39.333 17.333 73.666 40.5 102.999 69.5s52.666 63.167 69.999 102.5c16.667 39.333 25 81.333 25 126s-8.33301 86.667 -25 126c-17.333 39.333 -40.666 73.666 -69.999 102.999s-63.666 52.333 -102.999 69
c-38.667 16.667 -80.334 25 -125.001 25v0zM528 221c-34 0 -66.001 6.33301 -96.001 19c-29.333 12.667 -55.166 30.167 -77.499 52.5s-39.833 48.5 -52.5 78.5c-13.333 29.333 -20 61 -20 95s6.66699 66 20 96c12.667 29.333 30 55.166 52 77.499s48 39.833 78 52.5
c30 13.333 62 20 96 20c33.333 0 65 -6.66699 95 -20c30 -12.667 56 -30.167 78 -52.5s39.667 -48.166 53 -77.499c12.667 -30 19 -62 19 -96s-6.33301 -65.667 -19 -95c-13.333 -30 -31 -56.167 -53 -78.5s-48 -39.833 -78 -52.5s-61.667 -19 -95 -19zM527.999 646
c-50 0 -92.5 -17.667 -127.5 -53s-52.5 -77.666 -52.5 -126.999s17.5 -91.666 52.5 -126.999s77.5 -53 127.5 -53c49.333 0 91.5 17.667 126.5 53s52.5 77.666 52.5 126.999s-17.5 91.666 -52.5 126.999s-77.167 53 -126.5 53zM979.999 439v392.999
c0 2 -0.666992 3.66699 -2 5s-2.66602 2.33301 -3.99902 3c-2 0.666992 -3.83301 0.833984 -5.5 0.500977s-3.16699 -1.5 -4.5 -3.5c-24.667 -32 -43.5 -67.333 -56.5 -106s-19.5 -78 -19.5 -118v-144c0 -8 3 -15 9 -21s13 -9 21 -9h13
c-3.33301 -32 -6.33301 -65.667 -9 -101c-2 -36 -4 -69.667 -6 -101s-3.33301 -58.333 -4 -81s-1 -36.667 -1 -42c0 -16 4.33301 -29.833 13 -41.5s19 -17.5 31 -17.5c12.667 0 23.334 5.83301 32.001 17.5s13 25.5 13 41.5c0 5.33301 -0.333008 19.333 -1 42
c-1.33301 22.667 -2.83301 49.667 -4.5 81s-3.83398 65 -6.50098 101s-5.33398 69.667 -8.00098 101v0zM168.999 805.999c-4 0 -7.50293 -1.49707 -10.5029 -4.49707s-4.5 -6.83301 -4.5 -11.5l8 -161c0 -4.66699 -1.5 -8.66699 -4.5 -12s-6.83301 -5 -11.5 -5
s-8.5 1.66699 -11.5 5s-4.5 7.33301 -4.5 12l-4 161c-0.666992 4 -2.5 7.5 -5.5 10.5s-6.5 4.5 -10.5 4.5c-4.66699 0 -8.5 -1.5 -11.5 -4.5s-4.5 -6.5 -4.5 -10.5l-4 -161c0 -4.66699 -1.66699 -8.66699 -5 -12s-7 -5 -11 -5c-4.66699 0 -8.66699 1.66699 -12 5
s-5 7.33301 -5 12l8 161c0 4.66699 -1.33301 8.5 -4 11.5s-6 4.5 -10 4.5s-7.5 -1.33301 -10.5 -4s-4.5 -6 -4.5 -10l-12 -201c0 -16 3.83301 -30.5 11.5 -43.5s17.5 -23.167 29.5 -30.5c8 -4.66699 14.167 -11.334 18.5 -20.001s5.83301 -17.667 4.5 -27
c-3.33301 -31.333 -6.33301 -66.666 -9 -105.999c-3.33301 -38.667 -6 -75.5 -8 -110.5s-3.33301 -65.5 -4 -91.5c-1.33301 -26 -2 -42 -2 -48c0 -16 4.33301 -29.833 13 -41.5s19.334 -17.5 32.001 -17.5c12 0 22.5 5.83301 31.5 17.5s13.5 25.5 13.5 41.5
c0 6 -0.666992 22 -2 48s-3 56.5 -5 91.5s-4.33301 71.833 -7 110.5c-3.33301 39.333 -6.66602 74.666 -9.99902 105.999c-0.666992 9.33301 1 18.166 5 26.499s10 15.166 18 20.499c12.667 7.33301 22.834 17.5 30.501 30.5s11.5 27.167 11.5 42.5l-13 202
c0 4 -1.33301 7.33301 -4 10s-6 4 -10 4v0z" />
    <glyph glyph-name="uniE92B" unicode="&#xe92b;" 
d="M805 14c-0.666992 0 -14.0049 0.999023 -40.0049 2.99902s-55.667 7.33301 -89 16c-29.333 8 -59.666 20.5 -90.999 37.5s-52 41.167 -62 72.5c-9.33301 28 -9.66602 58.333 -0.999023 91c8.66699 33.333 22.334 67.333 41.001 102s40.334 69.334 65.001 104.001l73 100
c36.667 49.333 67.667 93 93 131s36.666 70.667 33.999 98c-1.33301 16 -8.5 31.833 -21.5 47.5s-32.167 30.834 -57.5 45.501c-18 10.667 -39.667 21.167 -65 31.5s-53.666 20.5 -84.999 30.5c-3.33301 1.33301 -6.83301 1 -10.5 -1s-6.16699 -4.66699 -7.5 -8
c-0.666992 -4 -0.166992 -7.83301 1.5 -11.5s4.5 -5.83398 8.5 -6.50098c88.667 -28 145.334 -53.667 170.001 -77s37.667 -41.333 39 -54c1.33301 -21.333 -10.5 -50.833 -35.5 -88.5s-53.5 -77.834 -85.5 -120.501l-79 -107c-26 -36.667 -48.5 -73.167 -67.5 -109.5
s-32.5 -71.833 -40.5 -106.5c-8 -35.333 -7 -68.666 3 -99.999c11.333 -35.333 33.333 -63 66 -83s66.667 -34.833 102 -44.5s67 -15.5 95 -17.5s43.333 -3 46 -3v0v0c4 0 7.5 1.33301 10.5 4s4.5 6 4.5 10s-1.33301 7.33301 -4 10s-6 4 -10 4v0v0zM617.995 710.999
c4.66699 14 6.33203 28 4.99902 42s-5.66602 27.333 -12.999 40c-13.333 22 -33 41 -59 57s-52.167 29 -78.5 39s-49.5 17.667 -69.5 23c-20.667 4.66699 -32 7.33398 -34 8.00098c-4 0.666992 -7.66699 -0.166016 -11 -2.49902s-5.33301 -5.5 -6 -9.5
c-0.666992 -3.33301 0 -6.66602 2 -9.99902s5 -5.33301 9 -6c0.666992 0 10.5 -2.33301 29.5 -7s40.833 -11.667 65.5 -21c32.667 -12.667 59.667 -26.167 81 -40.5s36.666 -29.166 45.999 -44.499c5.33301 -10 8.5 -19.833 9.5 -29.5s-0.166992 -19.834 -3.5 -30.501
c-5.33301 -14.667 -22 -34.834 -50 -60.501s-59.333 -52.834 -94 -81.501l-58 -50l-59 -53l-57 -55c-18 -18.667 -34.667 -37.334 -50 -56.001c-37.333 -46.667 -61.833 -89.667 -73.5 -129s-10.5 -76.333 3.5 -111c12 -30 27.667 -57.333 47 -82s43 -47 71 -67
c0.666992 -0.666992 1.83398 -1.33398 3.50098 -2.00098s3.16699 -1 4.5 -1c2 0 4 0.5 6 1.5s4 2.5 6 4.5c2 3.33301 2.66699 7 2 11s-2.66699 7 -6 9c-25.333 18.667 -46.833 39.167 -64.5 61.5s-32.167 47.5 -43.5 75.5c-13.333 33.333 -12.666 68.333 2.00098 105
s37.167 73.334 67.5 110.001s65.166 72.667 104.499 108l113 98l100.5 89c28.333 26 45.5 48.333 51.5 67v0v0zM251.993 618.999c-2.66699 -3.33301 -3.66211 -6.82812 -2.99512 -10.4951s2.33398 -6.83398 5.00098 -9.50098c3.33301 -2.66699 7 -3.83398 11 -3.50098
s7 2.16602 9 5.49902l26 32v-68c0 -4 1.33301 -7.33301 4 -10s6 -4 10 -4s7.33301 1.33301 10 4s4 6 4 10v68l26 -32c1.33301 -2 3 -3.33301 5 -4s4 -1 6 -1c1.33301 0 2.83301 0.166992 4.5 0.5s3.16699 1.16602 4.5 2.49902
c3.33301 2.66699 5.16602 5.83398 5.49902 9.50098s-0.833984 7.16699 -3.50098 10.5l-48 59v27l26 -32c1.33301 -1.33301 3 -2.5 5 -3.5s4 -1.5 6 -1.5s3.66699 0.333008 5 1l4 2c3.33301 2.66699 5.16602 6 5.49902 10s-0.833984 7.33301 -3.50098 10l-48 59v27l26 -31
c1.33301 -2 3 -3.5 5 -4.5s4 -1.5 6 -1.5c1.33301 0 2.83301 0.333008 4.5 1s3.16699 1.66699 4.5 3c3.33301 2 5.16602 5 5.49902 9s-0.833984 7.66699 -3.50098 11l-51 63c-1.33301 1.33301 -3 2.5 -5 3.5s-4 1.5 -6 1.5s-4 -0.5 -6 -1.5s-3.66699 -2.16699 -5 -3.5
l-51 -63c-2.66699 -3.33301 -3.66699 -7 -3 -11s2.33398 -7 5.00098 -9c3.33301 -2.66699 7 -3.83398 11 -3.50098s7 2.16602 9 5.49902l26 31v-27l-48 -59c-2.66699 -2.66699 -3.83398 -6 -3.50098 -10s2.16602 -7.33301 5.49902 -10
c3.33301 -2 6.83301 -2.83301 10.5 -2.5s6.83398 1.83301 9.50098 4.5l26 32v-27l-48 -59v0zM856.998 303.004c1.33301 -1.33301 3.00879 -2.49512 5.00879 -3.49512s4 -1.5 6 -1.5c1.33301 0 2.83301 0.333008 4.5 1s3.16699 1.33398 4.5 2.00098
c3.33301 2.66699 5.16602 6 5.49902 10s-0.833984 7.33301 -3.50098 10l-74 92v64l52 -64c1.33301 -2 3 -3.33301 5 -4s4 -1 6 -1c1.33301 0 2.83301 0.166992 4.5 0.5s3.16699 1.16602 4.5 2.49902c3.33301 2.66699 5.16602 5.83398 5.49902 9.50098
s-0.833984 7.16699 -3.50098 10.5l-77 96c-1.33301 1.33301 -3 2.5 -5 3.5s-4 1.5 -6 1.5s-4 -0.5 -6 -1.5s-3.66699 -2.16699 -5 -3.5l-78 -96c-2 -3.33301 -2.83301 -6.83301 -2.5 -10.5s2.16602 -6.83398 5.49902 -9.50098c2.66699 -2.66699 6 -3.83398 10 -3.50098
s7.33301 2.16602 10 5.49902l51 64v-64l-74 -92c-2 -2.66699 -2.83301 -6 -2.5 -10s2.16602 -7.33301 5.49902 -10c2.66699 -2 6 -2.83301 10 -2.5s7.33301 1.83301 10 4.5l51 65v-65l-74 -91c-2 -3.33301 -2.83301 -7 -2.5 -11s2.16602 -7 5.49902 -9
c2.66699 -2.66699 6 -3.83398 10 -3.50098s7.33301 2.16602 10 5.49902l51 64v-123c0 -4 1.5 -7.33301 4.5 -10s6.5 -4 10.5 -4s7.33301 1.33301 10 4s4 6 4 10v123l52 -64c1.33301 -2 3 -3.33301 5 -4s4 -1 6 -1c1.33301 0 2.83301 0.166992 4.5 0.5
s3.16699 1.16602 4.5 2.49902c3.33301 2 5.16602 5 5.49902 9s-0.833984 7.66699 -3.50098 11l-74 92v64l52 -65v0z" />
    <glyph glyph-name="uniE92C" unicode="&#xe92c;" 
d="M327 631l-0.00292969 91.4971c0 30.333 0.333008 60.5 1 90.5c0 35.333 11.833 64.833 35.5 88.5s53.167 35.5 88.5 35.5c34 0 62.833 -11.667 86.5 -35s35.5 -52.666 35.5 -87.999c0.666992 -30.667 1 -61.667 1 -93v-92.5v-92.5c0 -31.333 -0.333008 -62.333 -1 -93
c0 -9.33301 1.66699 -17.166 5 -23.499s9 -12.5 17 -18.5c28 -20 50.333 -44 67 -72c16.667 -28.667 27.334 -58.667 32.001 -90s3 -63.333 -5 -96c-8 -32 -22.667 -61.667 -44 -89c-17.333 -22 -37 -40.333 -59 -55c-22.667 -14 -46.167 -24.333 -70.5 -31
s-48.833 -9.66699 -73.5 -9c-25.333 0.666992 -49 4.66699 -71 12c-49.333 17.333 -89.666 47.333 -120.999 90s-46.666 90 -45.999 142c0 42 8.66699 80.167 26 114.5s43.333 63.833 78 88.5c6.66699 4.66699 11.5 9.83398 14.5 15.501s4.5 12.5 4.5 20.5
c-0.666992 31.333 -1 62.833 -1 94.5v94.5v0zM511.997 598.997l0.000976562 -0.000976562v102.5v102.5c0 20.667 -5.66699 37 -17 49s-25.666 18 -42.999 18c-18.667 0 -33.5 -6.16699 -44.5 -18.5s-16.5 -29.166 -16.5 -50.499v-96v-95.5v-95.5c0 -32 0.333008 -64 1 -96
c0 -14.667 -2.5 -26.5 -7.5 -35.5s-14.167 -17.5 -27.5 -25.5c-40 -22.667 -66.333 -57 -79 -103s-8.66699 -90 12 -132c20.667 -41.333 53.167 -70.5 97.5 -87.5s87.833 -16.5 130.5 1.5c35.333 14.667 62.666 35.334 81.999 62.001s30 59 32 97
c1.33301 37.333 -6.33398 70.166 -23.001 98.499s-41.334 51.5 -74.001 69.5c-8.66699 4 -14.667 8.83301 -18 14.5s-5 13.167 -5 22.5c0.666992 32.667 0.833984 65.667 0.500977 99s-0.5 66.333 -0.5 99v0zM724.998 724.996l28.5 -0.000976562h28.5
c11.333 -0.666992 20.333 -4 27 -10s10 -13.667 10 -23s-3 -17 -9 -23s-14.667 -9 -26 -9c-19.333 -0.666992 -38.833 -1 -58.5 -1s-39.167 0.333008 -58.5 1c-10.667 0 -19.167 3.16699 -25.5 9.5s-9.16602 13.833 -8.49902 22.5c0.666992 10 4.16699 17.833 10.5 23.5
s15.166 8.83398 26.499 9.50098h27h28v0zM723.998 537.995l-29.001 -0.000976562h-29c-8.66699 0.666992 -16 3.33398 -22 8.00098s-9.66699 11.667 -11 21c-0.666992 9.33301 1.33301 17.166 6 23.499s11.334 10.166 20.001 11.499c22 2 44.167 3 66.5 3s44.5 -1 66.5 -3
c9.33301 -1.33301 16.333 -5.16602 21 -11.499s6.66699 -14.166 6 -23.499s-4 -16.333 -10 -21s-13.667 -7 -23 -7c-10 -0.666992 -20.333 -1 -31 -1h-31v0v0zM726.997 781.994l-30 0.00195312h-30c-10 0 -18 2.66699 -24 8s-9.33301 13 -10 23c0 9.33301 2.66699 17 8 23
s13 9 23 9c20.667 0.666992 41.5 1 62.5 1h62.5c9.33301 -0.666992 16.666 -3.83398 21.999 -9.50098s8 -13.167 8 -22.5s-2.66699 -16.833 -8 -22.5s-12.666 -8.83398 -21.999 -9.50098h-31h-31v0v0v0zM739.997 417.996c-8 0 -15.834 -0.166992 -23.501 -0.5
s-15.167 -0.166016 -22.5 0.500977c-9.33301 0.666992 -16.666 3.5 -21.999 8.5s-8 12.5 -8 22.5c0 9.33301 2.5 16.833 7.5 22.5s12.167 8.5 21.5 8.5c16.667 0.666992 33 1 49 1s32 -0.333008 48 -1c9.33301 0 16.5 -3 21.5 -9s7.5 -13.667 7.5 -23
s-2.83301 -16.5 -8.5 -21.5s-13.167 -7.83301 -22.5 -8.5c-8 -0.666992 -16 -0.833984 -24 -0.500977s-16 0.5 -24 0.5v0zM482.996 468.996l0.00195312 -42.5v-42.5c-0.666992 -9.33301 0.666016 -16.666 3.99902 -21.999s9.66602 -10 18.999 -14
c27.333 -10 49.333 -25.667 66 -47c16 -20.667 26.5 -43.334 31.5 -68.001s3.5 -49.667 -4.5 -75c-7.33301 -25.333 -21.666 -48 -42.999 -68c-22.667 -20.667 -49.334 -33.5 -80.001 -38.5s-60 -0.833008 -88 12.5c-30 14 -52.833 33 -68.5 57s-23.167 52.667 -22.5 86
c0 32 8.16699 59.833 24.5 83.5s39.5 41.834 69.5 54.501c12 5.33301 20 11.5 24 18.5s6 16.5 6 28.5c-1.33301 27.333 -1.83301 54.333 -1.5 81s0.5 53.667 0.5 81v9c0 3.33301 0.333008 6.33301 1 9c1.33301 9.33301 4.5 16.666 9.5 21.999s12.5 8 22.5 8
c9.33301 -0.666992 16.5 -3.66699 21.5 -9s7.83301 -13 8.5 -23v-50.5v-50.5v0v0v0z" />
    <glyph glyph-name="uniE92D" unicode="&#xe92d;" 
d="M58 324c3.33301 5.33301 6.99805 10.5 10.998 15.5s8.33301 9.83301 13 14.5l132 131l131.5 130.5l131.5 130.5l132 131c4.66699 4.66699 9.5 8.83398 14.5 12.501l15.5 11.5h16h16c16 -6.66699 29.167 -16.167 39.5 -28.5s21.5 -23.833 33.5 -34.5
c7.33301 -6 11.333 -12.5 12 -19.5s-1.33301 -14.5 -6 -22.5c-11.333 -18 -16 -36.5 -14 -55.5s9.33301 -35.167 22 -48.5c14.667 -14 31.167 -22 49.5 -24s36.833 3 55.5 15c8.66699 4.66699 16.167 6.5 22.5 5.5s12.833 -4.5 19.5 -10.5l30 -32l31 -32v-22v-23
c-19.333 -22 -39.666 -43.333 -60.999 -64l-63 -62l-106 -106l-105 -105.5l-106 -105.5l-106 -106c-4.66699 -4.66699 -10 -9.33398 -16 -14.001s-12 -9 -18 -13h-16h-16c-17.333 7.33301 -32 17.833 -44 31.5s-24.333 26.834 -37 39.501
c-4.66699 5.33301 -6.16699 10.833 -4.5 16.5s4.16699 11.167 7.5 16.5c12 18 17.333 36.667 16 56s-9.33301 36.333 -24 51c-13.333 13.333 -29.666 20.833 -48.999 22.5s-38 -3.5 -56 -15.5c-8.66699 -6 -16.5 -8.33301 -23.5 -7s-13.833 5.66602 -20.5 12.999l-30 30.5
l-30 31.5v23v22v0zM206.998 269c42.667 0 76.8301 -16.665 102.497 -49.998s31.5 -69 17.5 -107c-5.33301 -14.667 -6.5 -26.5 -3.5 -35.5s9.83301 -17.5 20.5 -25.5l3.5 -3.5l3.5 -3.5c5.33301 -6 10.5 -9 15.5 -9s10.167 3 15.5 9l100 100l100.5 100.5l100.5 100.5
l101 101c3.33301 3.33301 6.16602 6.83301 8.49902 10.5s3.5 8.16699 3.5 13.5c0 6 1.5 10.833 4.5 14.5s7.5 5.5 13.5 5.5c6.66699 -0.666992 12.167 0.666016 16.5 3.99902s8.5 7 12.5 11l25 24.5c8.66699 8.33301 17 16.833 25 25.5c20 20.667 30.667 32.667 32 36
s-10 17 -34 41c-4 4 -7.83301 6.33301 -11.5 7s-8.16699 -0.333008 -13.5 -3c-23.333 -10 -46 -13.333 -68 -10s-42.667 13.333 -62 30c-19.333 16 -32.666 34.833 -39.999 56.5s-6.66602 44.5 2.00098 68.5c6 15.333 6.83301 27.666 2.5 36.999s-11.5 18 -21.5 26
c-1.33301 0.666992 -2.33301 1.33398 -3 2.00098s-1.33398 1.66699 -2.00098 3c-5.33301 6.66699 -10.666 9.83398 -15.999 9.50098s-11 -3.5 -17 -9.5l-37.5 -37.5l-37.5 -36.5c-3.33301 -4 -6 -7.83301 -8 -11.5s-3 -8.16699 -3 -13.5c0 -6 -1.83301 -10.833 -5.5 -14.5
s-8.5 -5.16699 -14.5 -4.5s-11 -0.333008 -15 -3s-7.66699 -5.66699 -11 -9l-94 -94l-94.5 -94l-94.5 -94l-94 -94c-22.667 -22.667 -33.667 -36.334 -33 -41.001s12.334 -18.334 35.001 -41.001c3.33301 -4 6.83301 -6.33301 10.5 -7s7.83398 0.333008 12.501 3
c8 4.66699 16.333 8 25 10s17 2.66699 25 2v0zM609.994 654.002c-7.33301 0.666992 -16.165 6.16699 -26.498 16.5s-15.833 18.833 -16.5 25.5c-0.666992 4 -0.333984 7.66699 0.999023 11s3.66602 6 6.99902 8c3.33301 2.66699 6.83301 4.16699 10.5 4.5
s7.16699 -0.833984 10.5 -3.50098c6.66699 -4 13 -8.83301 19 -14.5s10.667 -12.167 14 -19.5c4 -6.66699 3.83301 -13.167 -0.5 -19.5s-10.5 -9.16602 -18.5 -8.49902v0zM661.995 643.002c7.33301 0 16.998 -6.16797 28.998 -18.501s17.667 -22.166 17 -29.499
c-0.666992 -6 -4 -10.833 -10 -14.5s-11.667 -4.16699 -17 -1.5c-8 4 -15.167 9 -21.5 15s-11.166 13 -14.499 21c-2.66699 6.66699 -2.16699 13 1.5 19s8.83398 9 15.501 9v0zM739.993 566.001c6.66699 0 15.668 -5.66895 27.001 -17.002s17 -20.666 17 -27.999
c0.666992 -6.66699 -1.83301 -12.167 -7.5 -16.5s-11.5 -5.16602 -17.5 -2.49902c-8.66699 4 -16.334 9.16699 -23.001 15.5s-11.667 13.833 -15 22.5c-2.66699 6 -2 11.833 2 17.5s9.66699 8.5 17 8.5v0z" />
    <glyph glyph-name="uniE92E" unicode="&#xe92e;" 
d="M1011 615c-4 -20 -10.5049 -38.4941 -19.5049 -55.4941s-21.5 -31.833 -37.5 -44.5c-30 -24.667 -64.667 -35.167 -104 -31.5s-69.333 20.5 -90 50.5c-12.667 17.333 -19.667 35.666 -21 54.999s1.33398 39 8.00098 59c4 10.667 10.833 18.167 20.5 22.5
s19.5 5.16602 29.5 2.49902c10.667 -2.66699 19.167 -8.83398 25.5 -18.501s7.83301 -19.834 4.5 -30.501c-3.33301 -11.333 -4 -21.5 -2 -30.5s8.33301 -16.5 19 -22.5c8.66699 -4.66699 19.334 -5.5 32.001 -2.5s23 9.16699 31 18.5c18 23.333 25.5 50.333 22.5 81
s-23.5 54 -61.5 70c-33.333 14.667 -65.666 18.5 -96.999 11.5s-61.666 -19.5 -90.999 -37.5c-6.66699 -4.66699 -10.167 -9.83398 -10.5 -15.501s-0.5 -11.5 -0.5 -17.5c-1.33301 -30 -6.66602 -58 -15.999 -84s-25.333 -49.667 -48 -71
c-34.667 -32 -76.667 -45.5 -126 -40.5s-85.666 26.167 -108.999 63.5c-15.333 26 -20.333 54.5 -15 85.5s19.666 55.5 42.999 73.5c13.333 10.667 27.333 15 42 13s25 -9.66699 31 -23c4 -9.33301 5.16699 -18.166 3.5 -26.499s-6.5 -15.833 -14.5 -22.5
c-8.66699 -6.66699 -15.167 -14.167 -19.5 -22.5s-4.16602 -17.5 0.500977 -27.5c5.33301 -10.667 12.666 -18.334 21.999 -23.001s19.666 -7 30.999 -7c23.333 0 43.333 8.66699 60 26s26.334 40 29.001 68c4 42.667 -8.66699 76.667 -38 102s-66 33.666 -110 24.999
c-28 -5.33301 -52.833 -15.666 -74.5 -30.999s-41.5 -33 -59.5 -53l-49 -55.5c-16 -18.333 -33 -36.166 -51 -53.499c-19.333 -18 -40.166 -33.333 -62.499 -46s-46.833 -21 -73.5 -25c-12.667 -2 -23.334 -1.33301 -32.001 2s-16.334 10 -23.001 20v17.5v17.5
c4 7.33301 9.5 13 16.5 17s14.833 6.66699 23.5 8c16 3.33301 31 8.5 45 15.5s27 16.167 39 27.5c12 10.667 23.833 22.167 35.5 34.5s22.834 24.833 33.501 37.5c23.333 27.333 47.833 53.5 73.5 78.5s55.834 44.167 90.501 57.5c41.333 15.333 82 22 122 20
s76.667 -19 110 -51c16.667 -16.667 31.5 -25.334 44.5 -26.001s29.167 3.66602 48.5 12.999c31.333 14 63.333 22 96 24c33.333 2 64.666 -1.83301 93.999 -11.5s55.333 -25.167 78 -46.5c23.333 -21.333 40.333 -48.333 51 -81v-41.5v-41.5v0zM1011 276.006
c-6.66699 -10 -14.8311 -16.667 -24.498 -20s-20.5 -4.33301 -32.5 -3c-24.667 2 -48 8 -70 18s-43.333 21 -64 33c-26 15.333 -51.833 23.166 -77.5 23.499s-51.5 -7.16699 -77.5 -22.5l-54 -29c-18 -9.33301 -37.333 -16 -58 -20c-28 -5.33301 -54.833 -5.5 -80.5 -0.5
s-50.834 14.167 -75.501 27.5c-8 4.66699 -16 9 -24 13s-15.667 8.33301 -23 13c-24.667 13.333 -49 19.666 -73 18.999s-48 -7.66699 -72 -21c-22 -12 -44.167 -23.333 -66.5 -34s-46.166 -17.334 -71.499 -20.001c-12.667 -1.33301 -23.667 -0.5 -33 2.5
s-17.333 9.83301 -24 20.5v20v20c6.66699 6.66699 14.167 11.834 22.5 15.501s17.5 5.83398 27.5 6.50098c16.667 0.666992 32.167 4.83398 46.5 12.501l43.5 23.5c15.333 8 31 15.333 47 22s33 11.667 51 15c28 4 54.5 2.66699 79.5 -4s49.167 -16.334 72.5 -29.001
c3.33301 -2 6.66602 -3.83301 9.99902 -5.5s6.66602 -3.5 9.99902 -5.5c30 -19.333 60 -29 90 -29s60.333 9.66699 91 29c16.667 10 33.667 19 51 27s35.666 13.333 54.999 16c26.667 4.66699 52.167 4.16699 76.5 -1.5s48.166 -14.5 71.499 -26.5l60 -31
c20 -10 41.667 -15.333 65 -16c6.66699 -0.666992 12.334 -3.16699 17.001 -7.5s9.33398 -8.16602 14.001 -11.499v-20v-20v0zM1011 45.0059c-6.66699 -11.333 -15.166 -18.498 -25.499 -21.498s-21.5 -3.83301 -33.5 -2.5c-24 2.66699 -46.667 8.83398 -68 18.501
s-42 20.5 -62 32.5c-27.333 16 -54.5 23.833 -81.5 23.5s-54.5 -8.5 -82.5 -24.5c-18.667 -11.333 -37.667 -21.5 -57 -30.5s-40.333 -14.833 -63 -17.5c-19.333 -2.66699 -38.333 -2.66699 -57 0s-37 7.66699 -55 15c-12.667 5.33301 -24.834 11.166 -36.501 17.499
l-35.5 19.5c-25.333 14 -50.333 21 -75 21s-49.334 -7 -74.001 -21c-21.333 -12 -43 -23.333 -65 -34s-45.667 -17.334 -71 -20.001c-12.667 -1.33301 -24 -0.5 -34 2.5s-18.333 10.167 -25 21.5v17.5v17.5c3.33301 6.66699 8 12.167 14 16.5s12.667 6.83301 20 7.5
c20.667 0.666992 39.834 5.16699 57.501 13.5s35.167 17.166 52.5 26.499c28.667 16.667 58.167 28 88.5 34s61.833 4.33301 94.5 -5c16 -4 31.333 -9.66699 46 -17s29 -15.333 43 -24c28 -17.333 56 -26 84 -26s56.333 8.66699 85 26
c19.333 11.333 39.166 21.666 59.499 30.999s41.833 15 64.5 17c26 2.66699 50.5 1 73.5 -5s45.5 -15 67.5 -27l56.5 -29c19 -9.33301 39.833 -14.666 62.5 -15.999c6.66699 0 12.834 -2.33301 18.501 -7s10.167 -10 13.5 -16v-17.5v-17.5v0z" />
    <glyph glyph-name="uniE92F" unicode="&#xe92f;" 
d="M443 912h68h68c1.33301 -0.666992 2.83301 -1.16699 4.5 -1.5s3.5 -0.5 5.5 -0.5c52.667 -9.33301 101.334 -26.333 146.001 -51s85 -57 121 -97c32 -34.667 57.5 -72.5 76.5 -113.5s32.5 -84.5 40.5 -130.5v-68v-67c-0.666992 -3.33301 -1.33398 -6.5 -2.00098 -9.5
s-1.33398 -5.83301 -2.00098 -8.5c-10 -50 -26.667 -96.333 -50 -139s-54 -81.667 -92 -117c-35.333 -32.667 -73.666 -58.834 -114.999 -78.501s-85.666 -33.5 -132.999 -41.5h-68h-68c-1.33301 0 -2.83301 0.333008 -4.5 1s-3.5 1 -5.5 1
c-52.667 9.33301 -101.334 26.333 -146.001 51s-85 56.667 -121 96c-32 35.333 -57.5 73.333 -76.5 114s-32.5 84 -40.5 130v68v68c0.666992 2.66699 1.33398 5.5 2.00098 8.5s1.33398 6.16699 2.00098 9.5c10 50 26.667 96.333 50 139s54 81.334 92 116.001
c35.333 32.667 73.666 59 114.999 79s85.666 34 132.999 42v0zM455 826l-10.502 -2l-11.5 -2c-22 -4.66699 -43.5 -11.167 -64.5 -19.5s-40.833 -18.833 -59.5 -31.5c-48 -30.667 -86.333 -68 -115 -112s-48.334 -94 -59.001 -150
c-0.666992 -5.33301 -0.166992 -9.66602 1.5 -12.999s5.5 -5 11.5 -5c10 0.666992 16.167 -1.5 18.5 -6.5s3.5 -11.5 3.5 -19.5c-0.666992 -6.66699 -1 -13.5 -1 -20.5v-20.5c0 -4.66699 -1.16699 -8.33398 -3.5 -11.001s-6.16602 -4 -11.499 -4
c-9.33301 0.666992 -15 -1.16602 -17 -5.49902s-2.33301 -10.5 -1 -18.5c8 -40.667 21.167 -78.5 39.5 -113.5s42.166 -66.833 71.499 -95.5c28.667 -27.333 59.834 -49.333 93.501 -66s69.834 -28.667 108.501 -36c4.66699 -0.666992 9.33398 -0.833984 14.001 -0.500977
s6.66699 3.83301 6 10.5c-0.666992 12.667 2.33301 19.834 9 21.501s14.334 2.5 23.001 2.5h17.5h17.5c4.66699 0 8.5 -1.16699 11.5 -3.5s4.5 -6.16602 4.5 -11.499c-0.666992 -10 1.5 -15.833 6.5 -17.5s11.5 -1.83398 19.5 -0.500977c34.667 6.66699 67.667 17.5 99 32.5
s60 34.5 86 58.5c34 30 61.167 63.667 81.5 101s34.166 78 41.499 122c1.33301 5.33301 1.33301 10 0 14s-5 5.66699 -11 5c-10.667 -0.666992 -17.167 1.66602 -19.5 6.99902s-3.5 12 -3.5 20c0.666992 6.66699 1 13.5 1 20.5v20.5c0 4 0.833008 7.33301 2.5 10
s4.83398 4 9.50098 4c13.333 -1.33301 20.333 1.5 21 8.5s0 14.833 -2 23.5c-10 47.333 -27 90.333 -51 129s-55 72.667 -93 102c-25.333 19.333 -52 34.833 -80 46.5s-57.667 20.167 -89 25.5c-4.66699 0.666992 -9 0.666992 -13 0s-6 -4.33398 -6 -11.001
c0.666992 -11.333 -1.83301 -18.166 -7.5 -20.499s-12.834 -3.16602 -21.501 -2.49902h-17h-17c-6.66699 0 -11.667 1.33301 -15 4s-4.66602 7.33398 -3.99902 14.001c0 5.33301 -0.833008 9.66602 -2.5 12.999s-5.83398 4.66602 -12.501 3.99902v0zM283.998 217
c-5.33301 1.33301 -7.33203 3.50098 -5.99902 6.50098s2.66602 5.83301 3.99902 8.5l24.5 48l25.5 49l44.5 85l43.5 86c5.33301 9.33301 11.166 17.333 17.499 24s14.166 12.334 23.499 17.001l131.5 67l130.5 68c3.33301 1.33301 6.5 3.16602 9.5 5.49902
s6.16699 2.16602 9.5 -0.500977c2.66699 -2.66699 2.83398 -5.5 0.500977 -8.5s-4.16602 -6.16699 -5.49902 -9.5l-70.5 -136l-70.5 -137c-2.66699 -5.33301 -6 -10 -10 -14s-8.66699 -7.33301 -14 -10l-138 -72l-138 -71c-2 -1.33301 -4 -2.5 -6 -3.5s-4 -1.83301 -6 -2.5
v0zM547.999 451.001c0 9.33301 -3.83301 17.666 -11.5 24.999s-16.167 11 -25.5 11c-10 0 -18.833 -3.83301 -26.5 -11.5s-11.167 -16.5 -10.5 -26.5c0 -9.33301 3.83301 -17.666 11.5 -24.999s16.167 -11 25.5 -11c10 0 18.833 3.83301 26.5 11.5s11.167 16.5 10.5 26.5v0z
" />
    <glyph glyph-name="uniE930" unicode="&#xe930;" 
d="M497 -34c-1.33301 0.666992 -2.83496 1 -4.50195 1s-3.5 0.333008 -5.5 1c-18 3.33301 -33.333 12 -46 26s-20 30 -22 48v5.5v5.5v109v109.5v109.5v109c0 21.333 6.66699 40 20 56s30.333 26 51 30h6h6h86h84.5h85.5h85c16.667 0 31.167 -4 43.5 -12s22.5 -19 30.5 -33
c2.66699 -5.33301 4.83398 -11 6.50098 -17s2.83398 -12.333 3.50098 -19v-7.5v-7.5v-106v-107v-106v-106c0 -10 -1.16699 -19.333 -3.5 -28s-6.5 -16.667 -12.5 -24c-7.33301 -10.667 -16 -19 -26 -25s-21.333 -9.66699 -34 -11c-0.666992 0 -1.16699 -0.166992 -1.5 -0.5
s-0.833008 -0.5 -1.5 -0.5h-88h-87h-88h-88v0zM877.998 272v104.5v105.5c0 4.66699 -0.666992 9 -2 13s-3.33301 8 -6 12c-4.66699 6 -10.167 10.333 -16.5 13s-13.166 4 -20.499 4h-160h-160h-5c-2 0 -3.66699 -0.333008 -5 -1c-10.667 -1.33301 -19.334 -6 -26.001 -14
s-10 -17.333 -10 -28v-105v-104.5v-104.5v-105c0 -12 4.16699 -22.167 12.5 -30.5s18.5 -12.5 30.5 -12.5h82h80.5h81.5h81c12.667 0 23 4.16699 31 12.5s12 18.5 12 30.5v105v105zM527.998 934c3.33301 -0.666992 6.49805 -1.33398 9.49805 -2.00098
s5.83301 -1.66699 8.5 -3c16 -6 28.833 -14.667 38.5 -26s15.834 -25.666 18.501 -42.999c0 -2.66699 0.166992 -5.33398 0.5 -8.00098s0.5 -5.66699 0.5 -9v-24.5v-24.5c0 -1.33301 -0.333008 -2.33301 -1 -3s-1.66699 -1 -3 -1c-6.66699 0.666992 -13.5 1 -20.5 1
s-14.167 -0.333008 -21.5 -1c-1.33301 0 -2.16602 0.333008 -2.49902 1s-0.5 1.66699 -0.5 3v22v23c-0.666992 8.66699 -3 16.167 -7 22.5s-10 11.5 -18 15.5c-2.66699 1.33301 -5.33398 2.33301 -8.00098 3s-5.66699 1 -9 1h-82h-81.5h-81.5h-82
c-11.333 0 -21.166 -4 -29.499 -12s-12.5 -17.667 -12.5 -29v-1.5v-1.5v-104v-104v-104v-104c0 -6 0.833008 -11.5 2.5 -16.5s4.5 -9.5 8.5 -13.5c4 -4.66699 8.5 -8.16699 13.5 -10.5s10.5 -3.5 16.5 -3.5h14.5h14.5c1.33301 0 2.33301 -0.166992 3 -0.5s1 -1.5 1 -3.5
v-22.5v-23.5c0 -1.33301 -0.333008 -2.16602 -1 -2.49902s-1.66699 -0.5 -3 -0.5h-18h-18c-10.667 0 -20.5 1.83301 -29.5 5.5s-17.167 8.83398 -24.5 15.501c-8 7.33301 -14.333 15.166 -19 23.499s-7.66699 17.833 -9 28.5c-0.666992 2 -1 3.83301 -1 5.5v5.5v111v110v110
v111c0 20.667 7 39 21 55s31.333 25.333 52 28c0.666992 0.666992 1.16699 1 1.5 1h1.5h89h89.5h89.5h89v0zM261.996 447l-0.000976562 109.497c0 36.333 0.333008 72.5 1 108.5c0 18.667 4.33301 34.834 13 48.501s21.334 24.5 38.001 32.5
c5.33301 2 10.833 3.66699 16.5 5s11.167 2 16.5 2h85h84.5h84.5h85c22 0 40.833 -7.33301 56.5 -22s24.834 -32.334 27.501 -53.001c0 -2 0.166992 -3.83301 0.5 -5.5s0.5 -3.5 0.5 -5.5v-22.5v-23.5c0 -1.33301 -0.333008 -2.16602 -1 -2.49902s-1.66699 -0.5 -3 -0.5
h-20.5h-20.5c-2 0 -3.16699 0.166992 -3.5 0.5s-0.5 1.16602 -0.5 2.49902v18v18c0 10.667 -3.33301 19.834 -10 27.501s-15.334 12.5 -26.001 14.5h-4h-4h-81h-80.5h-80.5c-27.333 0.666992 -54.333 1 -81 1c-10.667 0 -20.167 -3.33301 -28.5 -10s-13.166 -15 -14.499 -25
c0 -1.33301 -0.166992 -2.83301 -0.5 -4.5s-0.5 -3.16699 -0.5 -4.5v-104v-104.5v-104.5v-104c0 -10.667 3.16699 -20 9.5 -28s14.833 -13 25.5 -15c3.33301 -0.666992 7 -1 11 -1h12c2 0 3.33301 -0.166992 4 -0.5s1 -1.5 1 -3.5v-22.5v-22.5
c0 -2 -0.333008 -3.16699 -1 -3.5s-1.66699 -0.5 -3 -0.5c-5.33301 0.666992 -10.666 0.833984 -15.999 0.500977s-10.333 -0.166016 -15 0.500977c-8.66699 0.666992 -16.834 2.66699 -24.501 6s-14.834 8 -21.501 14c-8.66699 6.66699 -15.5 14.667 -20.5 24
s-8.16699 19.333 -9.5 30c0 2 -0.166992 4.16699 -0.5 6.5s-0.5 4.5 -0.5 6.5v108.5v108.5v0z" />
    <glyph glyph-name="uniE931" unicode="&#xe931;" 
d="M244 -29c-8.66699 10.667 -14.0059 22.3398 -16.0059 35.0068s-3.66699 25 -5 37c-2.66699 33.333 -3.66699 66.666 -3 99.999c0.666992 32.667 3.33398 65.167 8.00098 97.5s11.334 64.166 20.001 95.499c8.66699 32 19.667 63.667 33 95
c13.333 32 29.666 60.333 48.999 85c19.333 24 41 45 65 63s50.667 32.667 80 44c28.667 11.333 59.667 20.333 93 27c40.667 7.33301 81.5 12.666 122.5 15.999s81.5 8.66602 121.5 15.999c24.667 4.66699 48.834 10.5 72.501 17.5s46.834 16.167 69.501 27.5
c4 2 8 3.5 12 4.5s8 -0.166992 12 -3.5c3.33301 -2.66699 5 -6 5 -10s-0.333008 -8 -1 -12c-10.667 -36 -20 -72.333 -28 -109s-18.667 -72.667 -32 -108c-10 -26.667 -21.667 -52 -35 -76c-12.667 -24.667 -27.5 -47.5 -44.5 -68.5s-36.167 -40.5 -57.5 -58.5
c-20.667 -17.333 -44 -33 -70 -47c-26 -14.667 -53.167 -25.334 -81.5 -32.001s-57.166 -12 -86.499 -16l-101.5 -13.5c-33.667 -4.33301 -66.5 -12.833 -98.5 -25.5c-11.333 -4 -20 -3.5 -26 1.5s-8.33301 13.833 -7 26.5c2 22.667 8.66699 43.667 20 63
s24 37.666 38 54.999c16.667 21.333 35.5 39.666 56.5 54.999s43.5 28.333 67.5 39l27.5 14c9 4.66699 17.833 9.66699 26.5 15c-24 -5.33301 -47.333 -11.833 -70 -19.5s-44.667 -17.5 -66 -29.5c-47.333 -26 -83.166 -59.667 -107.499 -101s-40.5 -88 -48.5 -140
c-4 -22.667 -5.83301 -45.5 -5.5 -68.5s3.5 -45.833 9.5 -68.5c0.666992 -4 0.833984 -8 0.500977 -12s-2.5 -7.66699 -6.5 -11h-6h-6v0zM56.9941 929.006c29.333 -17.333 60.167 -29.5049 92.5 -36.5049s65.166 -11.5 98.499 -13.5c30 -2 59.333 -5.33301 88 -10
c28.667 -4 56.5 -10.333 83.5 -19s53.5 -19.667 79.5 -33c25.333 -13.333 50 -29.666 74 -48.999l35 -32.5c11.333 -11 21.666 -23.167 30.999 -36.5c4 -5.33301 5.83301 -9.5 5.5 -12.5s-4.5 -5.16699 -12.5 -6.5c-22.667 -3.33301 -45.334 -7 -68.001 -11
s-45.334 -9.33301 -68.001 -16c-3.33301 -1.33301 -6.66602 -1.66602 -9.99902 -0.999023s-6.66602 2 -9.99902 4c-18.667 12 -38.5 20.833 -59.5 26.5s-43.5 10.5 -67.5 14.5l46.5 -22.5l43.5 -21.5c2.66699 -1.33301 5.66699 -2.66602 9 -3.99902s5 -3.66602 5 -6.99902
c0 -4.66699 -1.83301 -7.5 -5.5 -8.5s-7.16699 -2.5 -10.5 -4.5c-24.667 -12 -47.5 -26.167 -68.5 -42.5s-39.5 -35.833 -55.5 -58.5c-4.66699 -6.66699 -9.66699 -10.5 -15 -11.5s-11.666 -0.5 -18.999 1.5c-25.333 9.33301 -48 22 -68 38s-38.333 34.333 -55 55
c-22.667 27.333 -41.167 56.833 -55.5 88.5s-25.833 64.834 -34.5 99.501l-14 54l-14 54c-0.666992 3.33301 -1.16699 7 -1.5 11s0.833984 7.66699 3.50098 11h8h9v0z" />
    </font>
</defs>
</svg>
